<svg width="1440" height="1024" viewBox="0 0 1440 1024" fill="none" xmlns="http://www.w3.org/2000/svg">
<path d="M4.89746 60.815L6.573 67.5012C6.573 67.5012 11.5223 71.1418 20.6476 69.5951L18.9721 62.9089C9.821 64.4793 4.89746 60.815 4.89746 60.815Z" fill="url(#paint0_linear_1484_41786)"/>
<path d="M766.963 69.2142L762.168 68.6194C762.168 68.6194 768.329 69.4522 767.659 80.6117L772.453 81.2066C773.123 70.047 766.963 69.2142 766.963 69.2142Z" fill="url(#paint1_linear_1484_41786)"/>
<path d="M1080.8 26.4796L1074.23 23.7433C1074.23 23.7433 1071.19 32.1426 1067.45 37.1157L1074.02 39.852C1077.76 34.9028 1080.8 26.4796 1080.8 26.4796Z" fill="url(#paint2_linear_1484_41786)"/>
<path d="M-32.9932 847.575L-21.7283 858.068C-21.7283 858.068 -8.19502 842.888 3.79161 835.297L-7.47325 824.804C-19.4341 832.371 -32.9932 847.575 -32.9932 847.575Z" fill="url(#paint3_linear_1484_41786)"/>
<path d="M1319.29 315.238L1316.09 305.03C1316.09 305.03 1300.65 311.526 1287.68 304.459L1290.88 314.667C1303.84 321.757 1319.29 315.238 1319.29 315.238Z" fill="url(#paint4_linear_1484_41786)"/>
<path d="M992.883 970.306L1013.92 969.687C1013.92 969.687 1016.03 948.701 1006.03 930.022L984.995 930.641C994.997 949.319 992.883 970.306 992.883 970.306Z" fill="url(#paint5_linear_1484_41786)"/>
<path d="M839.447 929.808C848.16 940.897 845.789 951.485 845.454 952.794L848.65 940.968C848.65 940.968 851.975 929.689 842.67 917.84C833.364 905.99 814.366 908.655 814.366 908.655L811.144 920.624C811.144 920.648 830.142 917.983 839.447 929.808Z" fill="url(#paint6_linear_1484_41786)"/>
<path d="M221.522 148.43L212.448 152.571C212.448 152.571 224.177 147.36 237.195 167.49L246.269 163.35C233.251 143.219 221.522 148.43 221.522 148.43Z" fill="url(#paint7_linear_1484_41786)"/>
<path d="M1175.75 889.548L1185.03 887.359C1185.03 887.359 1183.74 877.818 1177.29 870.418L1168.01 872.607C1174.46 880.03 1175.75 889.548 1175.75 889.548Z" fill="url(#paint8_linear_1484_41786)"/>
<path d="M304.746 86.0845C292.863 78.5655 291.264 68.1673 291.084 66.8824L292.373 78.6606C292.373 78.6606 293.327 89.9868 306.035 98.0055C318.743 106.024 335.164 97.8389 335.164 97.8389L333.875 85.9179C333.875 85.9179 317.455 94.1032 304.746 86.0845Z" fill="url(#paint9_linear_1484_41786)"/>
<path d="M554.736 887.978L569.352 893.903C569.352 893.903 578.271 880.173 578.039 864.374L563.423 858.449C563.655 874.249 554.736 887.978 554.736 887.978Z" fill="url(#paint10_linear_1484_41786)"/>
<path d="M1428.21 398.243C1427.08 396.03 1425.74 395.411 1422.51 394.483C1419.29 393.555 1418.08 391.747 1418.08 391.747L1416.46 395.435C1416.46 395.435 1417.69 397.243 1420.89 398.171C1424.11 399.099 1425.45 399.718 1426.59 401.931L1428.21 398.243Z" fill="url(#paint11_linear_1484_41786)"/>
<path d="M1180.62 963.715C1183.02 961.455 1183.25 959.647 1183.02 955.625C1182.81 951.58 1184.64 949.415 1184.64 949.415L1179.05 949.248C1179.05 949.248 1177.22 951.438 1177.42 955.459C1177.63 959.504 1177.42 961.288 1175.02 963.549L1180.62 963.715Z" fill="url(#paint12_linear_1484_41786)"/>
<path d="M361.148 959.599C363.571 974.898 355.245 984.345 354.162 985.511L364.061 975.208C364.061 975.208 373.779 965.523 371.175 949.177C368.572 932.83 348.053 926.358 348.053 926.358L338.051 936.78C337.999 936.756 358.544 943.252 361.148 959.599Z" fill="url(#paint13_linear_1484_41786)"/>
<path d="M548.296 74.4014C545.589 71.2606 546.105 68.1435 546.182 67.739L545.434 71.2368C545.434 71.2368 544.635 74.5918 547.522 77.923C550.435 81.278 555.952 80.2549 555.952 80.2549L556.725 76.7095C556.725 76.7333 551.209 77.7564 548.296 74.4014Z" fill="url(#paint14_linear_1484_41786)"/>
<path d="M1190.77 800.843L1190.8 800.89C1190.77 800.913 1190.77 800.89 1190.77 800.843Z" fill="url(#paint15_linear_1484_41786)"/>
<path d="M1441.11 20.6738L1430.25 5.27881C1430.25 5.27881 1430.13 27.7645 1382.75 31.405L1393.6 46.7999C1440.95 43.1356 1441.11 20.6738 1441.11 20.6738Z" fill="url(#paint16_linear_1484_41786)"/>
<path d="M810.062 1026.65C812.898 1025.46 813.748 1024.01 815.012 1020.54C816.275 1017.06 818.62 1015.78 818.62 1015.78L813.955 1013.92C813.955 1013.92 811.609 1015.21 810.346 1018.68C809.083 1022.15 808.258 1023.61 805.396 1024.8L810.062 1026.65Z" fill="url(#paint17_linear_1484_41786)"/>
<path d="M1375.2 871.893L1380.33 867.681C1380.33 867.681 1373.6 861.971 1370.38 857.069L1365.25 861.281C1368.47 866.182 1375.2 871.893 1375.2 871.893Z" fill="url(#paint18_linear_1484_41786)"/>
<path d="M659.811 828.349C664.838 827.017 666.617 824.78 669.633 819.284C672.649 813.787 676.876 812.169 676.876 812.169L669.607 808.053C669.607 808.053 665.379 809.671 662.363 815.167C659.347 820.664 657.594 822.9 652.542 824.233L659.811 828.349Z" fill="url(#paint19_linear_1484_41786)"/>
<path d="M226.536 8.9194L219.421 10.6802C219.421 10.6802 220.504 17.985 225.504 23.6005L232.619 21.8398C227.618 16.2243 226.536 8.9194 226.536 8.9194Z" fill="url(#paint20_linear_1484_41786)"/>
<path d="M1349.91 567.801L1353.88 560.687C1353.88 560.687 1348.7 569.8 1328.62 562.043L1324.65 569.157C1344.7 576.914 1349.91 567.801 1349.91 567.801Z" fill="url(#paint21_linear_1484_41786)"/>
<path d="M1453.14 647.607L1463.53 628.5C1463.53 628.5 1434.71 618.388 1417.91 606.729L1407.52 625.835C1424.32 637.471 1453.14 647.607 1453.14 647.607Z" fill="url(#paint22_linear_1484_41786)"/>
<path d="M417.604 989.437L434.18 998.384C434.18 998.384 446.862 983.132 448.976 964.215L432.401 955.268C430.313 974.185 417.604 989.437 417.604 989.437Z" fill="url(#paint23_linear_1484_41786)"/>
<path d="M126.804 29.573L108.914 42.3268C108.914 42.3268 129.639 62.4806 139.074 79.2794L156.964 66.5257C147.529 49.7268 126.804 29.573 126.804 29.573Z" fill="url(#paint24_linear_1484_41786)"/>
<path d="M380.144 646.465L380.094 646.512C380.094 646.489 380.119 646.489 380.144 646.465Z" fill="url(#paint25_linear_1484_41786)"/>
<path d="M282.859 851.525L282.809 851.549C282.809 851.549 282.834 851.549 282.859 851.525Z" fill="url(#paint26_linear_1484_41786)"/>
<path d="M888.254 992.697L895.265 991.912C895.265 991.912 886.243 992.84 882.712 976.802L875.7 977.588C879.232 993.625 888.254 992.697 888.254 992.697Z" fill="url(#paint27_linear_1484_41786)"/>
<path d="M1374.39 78.0422L1364.49 64.1463C1364.49 64.1463 1364.44 84.4905 1321.59 87.9407L1331.49 101.837C1374.33 98.3864 1374.39 78.0422 1374.39 78.0422Z" fill="url(#paint28_linear_1484_41786)"/>
<path d="M128.093 245.434L128.066 245.388C128.066 245.388 128.066 245.411 128.093 245.434Z" fill="url(#paint29_linear_1484_41786)"/>
<path d="M1111.9 920.1L1118.88 917.126C1118.88 917.126 1113.67 908.988 1111.95 902.754L1104.96 905.728C1106.69 911.963 1111.9 920.1 1111.9 920.1Z" fill="url(#paint30_linear_1484_41786)"/>
<path d="M476.294 13.488L463.715 16.5337C463.715 16.5337 469.798 31.5004 470.701 42.3744L483.28 39.3287C482.404 28.4547 476.294 13.488 476.294 13.488Z" fill="url(#paint31_linear_1484_41786)"/>
<path d="M1146.19 67.4298L1141.83 63.3609C1141.83 63.3609 1136.49 67.1204 1134.12 72.8549L1138.48 76.9237C1140.85 71.213 1146.19 67.4298 1146.19 67.4298Z" fill="url(#paint32_linear_1484_41786)"/>
<path d="M1281.82 835.154C1283.5 832.823 1283.34 831.252 1282.44 827.802C1281.54 824.352 1282.72 822.187 1282.72 822.187L1277.88 822.9C1277.88 822.9 1276.69 825.066 1277.59 828.516C1278.5 831.966 1278.63 833.536 1276.98 835.868L1281.82 835.154Z" fill="url(#paint33_linear_1484_41786)"/>
<path d="M348.698 897.448L355.71 902.255C355.71 902.255 362.283 895.949 364.242 887.478L357.231 882.672C355.246 891.143 348.698 897.448 348.698 897.448Z" fill="url(#paint34_linear_1484_41786)"/>
<path d="M1070.6 981.18L1078.33 976.755C1078.33 976.755 1069.65 967.285 1072.69 956.648L1064.95 961.074C1061.91 971.71 1070.6 981.18 1070.6 981.18Z" fill="url(#paint35_linear_1484_41786)"/>
<path d="M1197.46 1.82882L1186.86 -8.1886C1186.86 -8.1886 1173.74 0.996015 1167.86 14.9871L1178.46 25.0045C1184.34 11.0135 1197.46 1.82882 1197.46 1.82882Z" fill="url(#paint36_linear_1484_41786)"/>
<path d="M680.583 1038.33L704.015 1044.4C704.015 1044.4 714.274 1021.94 710.253 998.146L686.821 992.078C690.843 1015.87 680.583 1038.33 680.583 1038.33Z" fill="url(#paint37_linear_1484_41786)"/>
<path d="M1466.29 726.272L1474.54 714.85C1474.54 714.85 1457.06 706.308 1447.37 697.671L1439.12 709.092C1448.82 717.729 1466.29 726.272 1466.29 726.272Z" fill="url(#paint38_linear_1484_41786)"/>
<path d="M919.342 114.305C914.65 114.519 912.614 116.137 908.773 120.372C904.932 124.608 900.885 125.226 900.885 125.226L906.35 130.176C906.35 130.176 910.397 129.557 914.238 125.321C918.078 121.086 920.115 119.468 924.806 119.254L919.342 114.305Z" fill="url(#paint39_linear_1484_41786)"/>
<path d="M535.66 655.483L540.971 657.03C540.971 657.03 534.165 654.984 537.31 642.396L532 640.85C528.855 653.413 535.66 655.483 535.66 655.483Z" fill="url(#paint40_linear_1484_41786)"/>
<path d="M349.445 -11.5675L341.479 -6.78482C341.479 -6.78482 350.785 2.89948 347.847 14.059L355.812 9.27638C358.725 -1.88317 349.445 -11.5675 349.445 -11.5675Z" fill="url(#paint41_linear_1484_41786)"/>
<path d="M933.565 944.751L944.623 942.943C944.623 942.943 930.394 945.132 923.279 919.981L912.221 921.79C919.31 946.94 933.565 944.751 933.565 944.751Z" fill="url(#paint42_linear_1484_41786)"/>
<path d="M1249.29 972.924L1249.7 962.002C1249.7 962.002 1243.75 954.507 1229.06 953.436L1228.64 964.358C1243.36 965.429 1249.29 972.924 1249.29 972.924Z" fill="url(#paint43_linear_1484_41786)"/>
<path d="M1163.57 872.964L1181.28 863.589C1181.28 863.589 1165.46 843.197 1159.27 827.112L1141.56 836.487C1147.75 852.572 1163.57 872.964 1163.57 872.964Z" fill="url(#paint44_linear_1484_41786)"/>
<path d="M1083.36 162.464L1071.61 155.231C1071.61 155.231 1086.64 164.677 1069.37 193.278L1081.12 200.511C1098.39 171.911 1083.36 162.464 1083.36 162.464Z" fill="url(#paint45_linear_1484_41786)"/>
<path d="M527.925 1031.05L535.194 1032.55C535.194 1032.55 525.837 1030.55 528.415 1013.45L521.146 1011.95C518.568 1029.05 527.925 1031.05 527.925 1031.05Z" fill="url(#paint46_linear_1484_41786)"/>
<path d="M154.584 632.433C153.063 638.691 148.294 641.214 147.701 641.523L153.192 638.882C153.192 638.882 158.528 636.455 160.152 629.768C161.776 623.082 154.867 617.729 154.867 617.729L149.299 620.393C149.299 620.393 156.208 625.747 154.584 632.433Z" fill="url(#paint47_linear_1484_41786)"/>
<path d="M1325.18 936.376L1324.82 930.784C1324.82 930.784 1321.39 927.215 1313.81 927.334L1314.17 932.926C1321.75 932.807 1325.18 936.376 1325.18 936.376Z" fill="url(#paint48_linear_1484_41786)"/>
<path d="M1013.84 896.782L1029.87 894.855C1029.87 894.855 1012.08 886.86 1025.85 853.548L1009.81 855.475C996.05 888.763 1013.84 896.782 1013.84 896.782Z" fill="url(#paint49_linear_1484_41786)"/>
<path d="M1311.8 120.563L1311.86 120.539C1311.86 120.539 1311.83 120.563 1311.8 120.563Z" fill="url(#paint50_linear_1484_41786)"/>
<path d="M1313.63 923.217L1325.98 910.844C1325.98 910.844 1303.76 896.901 1303.45 874.891L1291.1 887.264C1291.39 909.274 1313.63 923.217 1313.63 923.217Z" fill="url(#paint51_linear_1484_41786)"/>
<path d="M456.833 943.585L466.036 935.59C466.036 935.59 467.608 925.787 457.323 914.747L448.12 922.742C458.405 933.782 456.833 943.585 456.833 943.585Z" fill="url(#paint52_linear_1484_41786)"/>
<path d="M776.73 800.442L790.831 796.468C790.831 796.468 783.226 779.765 781.68 767.51L767.579 771.484C769.126 783.738 776.73 800.442 776.73 800.442Z" fill="url(#paint53_linear_1484_41786)"/>
<path d="M863.319 64.5269C861.721 59.7919 863.861 56.413 864.144 55.9847L861.566 59.6967C861.566 59.6967 859.014 63.2182 860.716 68.2626C862.417 73.3308 869.274 74.4254 869.274 74.4254L871.877 70.6658C871.877 70.7134 865.021 69.5951 863.319 64.5269Z" fill="url(#paint54_linear_1484_41786)"/>
<path d="M1485.98 273.298L1477.11 261.14C1477.11 261.14 1459.81 275.702 1439.53 271.466L1448.39 283.625C1468.65 287.861 1485.98 273.298 1485.98 273.298Z" fill="url(#paint55_linear_1484_41786)"/>
<path d="M590.697 1030.48L600.982 1033.55C600.982 1033.55 592.734 1024.03 611.319 1007.57L601.034 1004.5C582.448 1020.96 590.697 1030.48 590.697 1030.48Z" fill="url(#paint56_linear_1484_41786)"/>
<defs>
<linearGradient id="paint0_linear_1484_41786" x1="5.71057" y1="66.1398" x2="22.978" y2="63.5214" gradientUnits="userSpaceOnUse">
<stop stop-color="#0080FF"/>
<stop offset="0.0136" stop-color="#0283FF"/>
<stop offset="0.0241" stop-color="#078DFF"/>
<stop offset="0.0336" stop-color="#109DFF"/>
<stop offset="0.0424" stop-color="#1DB4FF"/>
<stop offset="0.05" stop-color="#2BCFFF"/>
<stop offset="0.15" stop-color="#0080FF"/>
<stop offset="0.5" stop-color="#26CCFF"/>
<stop offset="0.85" stop-color="#0074EA"/>
<stop offset="0.95" stop-color="#06BCFF"/>
<stop offset="1" stop-color="#0072E8"/>
</linearGradient>
<linearGradient id="paint1_linear_1484_41786" x1="766.533" y1="80.7197" x2="767.838" y2="69.4393" gradientUnits="userSpaceOnUse">
<stop stop-color="#D4082D"/>
<stop offset="0.0173" stop-color="#D7082E"/>
<stop offset="0.0308" stop-color="#E1082F"/>
<stop offset="0.0428" stop-color="#F10832"/>
<stop offset="0.05" stop-color="#FF0835"/>
<stop offset="0.15" stop-color="#D4082D"/>
<stop offset="0.5" stop-color="#FF0835"/>
<stop offset="0.85" stop-color="#B50827"/>
<stop offset="0.95" stop-color="#FF0835"/>
<stop offset="1" stop-color="#AF0826"/>
</linearGradient>
<linearGradient id="paint2_linear_1484_41786" x1="1078.28" y1="24.4098" x2="1071.69" y2="38.9248" gradientUnits="userSpaceOnUse">
<stop stop-color="#FF4AD1"/>
<stop offset="0.0147" stop-color="#FF4DD3"/>
<stop offset="0.026" stop-color="#FF57D9"/>
<stop offset="0.0363" stop-color="#FF67E2"/>
<stop offset="0.0459" stop-color="#FF7EF0"/>
<stop offset="0.05" stop-color="#FF8BF7"/>
<stop offset="0.15" stop-color="#FF4AD1"/>
<stop offset="0.5" stop-color="#FF8BF7"/>
<stop offset="0.85" stop-color="#FF30C2"/>
<stop offset="0.95" stop-color="#FF8BF7"/>
<stop offset="1" stop-color="#FF2ABE"/>
</linearGradient>
<linearGradient id="paint3_linear_1484_41786" x1="-29.5217" y1="853.731" x2="-3.91471" y2="827.98" gradientUnits="userSpaceOnUse">
<stop stop-color="#0080FF"/>
<stop offset="0.0136" stop-color="#0283FF"/>
<stop offset="0.0241" stop-color="#078DFF"/>
<stop offset="0.0336" stop-color="#109DFF"/>
<stop offset="0.0424" stop-color="#1DB4FF"/>
<stop offset="0.05" stop-color="#2BCFFF"/>
<stop offset="0.15" stop-color="#0080FF"/>
<stop offset="0.5" stop-color="#26CCFF"/>
<stop offset="0.85" stop-color="#0074EA"/>
<stop offset="0.95" stop-color="#06BCFF"/>
<stop offset="1" stop-color="#0072E8"/>
</linearGradient>
<linearGradient id="paint4_linear_1484_41786" x1="1318.06" y1="306.471" x2="1288.65" y2="314.871" gradientUnits="userSpaceOnUse">
<stop stop-color="#FF4AD1"/>
<stop offset="0.0147" stop-color="#FF4DD3"/>
<stop offset="0.026" stop-color="#FF57D9"/>
<stop offset="0.0363" stop-color="#FF67E2"/>
<stop offset="0.0459" stop-color="#FF7EF0"/>
<stop offset="0.05" stop-color="#FF8BF7"/>
<stop offset="0.15" stop-color="#FF4AD1"/>
<stop offset="0.5" stop-color="#FF8BF7"/>
<stop offset="0.85" stop-color="#FF30C2"/>
<stop offset="0.95" stop-color="#FF8BF7"/>
<stop offset="1" stop-color="#FF2ABE"/>
</linearGradient>
<linearGradient id="paint5_linear_1484_41786" x1="998.602" y1="927.829" x2="1000.88" y2="980.911" gradientUnits="userSpaceOnUse">
<stop stop-color="#0080FF"/>
<stop offset="0.0136" stop-color="#0283FF"/>
<stop offset="0.0241" stop-color="#078DFF"/>
<stop offset="0.0336" stop-color="#109DFF"/>
<stop offset="0.0424" stop-color="#1DB4FF"/>
<stop offset="0.05" stop-color="#2BCFFF"/>
<stop offset="0.15" stop-color="#0080FF"/>
<stop offset="0.5" stop-color="#26CCFF"/>
<stop offset="0.85" stop-color="#0074EA"/>
<stop offset="0.95" stop-color="#06BCFF"/>
<stop offset="1" stop-color="#0072E8"/>
</linearGradient>
<linearGradient id="paint6_linear_1484_41786" x1="855.977" y1="936.027" x2="809.141" y2="921.852" gradientUnits="userSpaceOnUse">
<stop stop-color="#0080FF"/>
<stop offset="0.0136" stop-color="#0283FF"/>
<stop offset="0.0241" stop-color="#078DFF"/>
<stop offset="0.0336" stop-color="#109DFF"/>
<stop offset="0.0424" stop-color="#1DB4FF"/>
<stop offset="0.05" stop-color="#2BCFFF"/>
<stop offset="0.15" stop-color="#0080FF"/>
<stop offset="0.5" stop-color="#26CCFF"/>
<stop offset="0.85" stop-color="#0074EA"/>
<stop offset="0.95" stop-color="#06BCFF"/>
<stop offset="1" stop-color="#0072E8"/>
</linearGradient>
<linearGradient id="paint7_linear_1484_41786" x1="235.325" y1="168.883" x2="225.135" y2="147.026" gradientUnits="userSpaceOnUse">
<stop stop-color="#FFA500"/>
<stop offset="0.018" stop-color="#FFA801"/>
<stop offset="0.032" stop-color="#FFB203"/>
<stop offset="0.0445" stop-color="#FFC206"/>
<stop offset="0.05" stop-color="#FFCC08"/>
<stop offset="0.15" stop-color="#FFA500"/>
<stop offset="0.5" stop-color="#FFCC08"/>
<stop offset="0.85" stop-color="#FF9100"/>
<stop offset="0.95" stop-color="#FFCC08"/>
<stop offset="1" stop-color="#FF8E00"/>
</linearGradient>
<linearGradient id="paint8_linear_1484_41786" x1="1173.78" y1="870.14" x2="1179.67" y2="893.741" gradientUnits="userSpaceOnUse">
<stop stop-color="#00B102"/>
<stop offset="0.0149" stop-color="#00B402"/>
<stop offset="0.0264" stop-color="#00BE03"/>
<stop offset="0.0368" stop-color="#00CE05"/>
<stop offset="0.0464" stop-color="#00E507"/>
<stop offset="0.05" stop-color="#00F008"/>
<stop offset="0.15" stop-color="#00B102"/>
<stop offset="0.5" stop-color="#00F008"/>
<stop offset="0.85" stop-color="#009700"/>
<stop offset="0.95" stop-color="#00F008"/>
<stop offset="1" stop-color="#009200"/>
</linearGradient>
<linearGradient id="paint9_linear_1484_41786" x1="287.41" y1="85.4031" x2="335.092" y2="81.7198" gradientUnits="userSpaceOnUse">
<stop stop-color="#FFA500"/>
<stop offset="0.018" stop-color="#FFA801"/>
<stop offset="0.032" stop-color="#FFB203"/>
<stop offset="0.0445" stop-color="#FFC206"/>
<stop offset="0.05" stop-color="#FFCC08"/>
<stop offset="0.15" stop-color="#FFA500"/>
<stop offset="0.5" stop-color="#FFCC08"/>
<stop offset="0.85" stop-color="#FF9100"/>
<stop offset="0.95" stop-color="#FFCC08"/>
<stop offset="1" stop-color="#FF8E00"/>
</linearGradient>
<linearGradient id="paint10_linear_1484_41786" x1="573.742" y1="860.64" x2="558.914" y2="898.622" gradientUnits="userSpaceOnUse">
<stop stop-color="#00B102"/>
<stop offset="0.0149" stop-color="#00B402"/>
<stop offset="0.0264" stop-color="#00BE03"/>
<stop offset="0.0368" stop-color="#00CE05"/>
<stop offset="0.0464" stop-color="#00E507"/>
<stop offset="0.05" stop-color="#00F008"/>
<stop offset="0.15" stop-color="#00B102"/>
<stop offset="0.5" stop-color="#00F008"/>
<stop offset="0.85" stop-color="#009700"/>
<stop offset="0.95" stop-color="#00F008"/>
<stop offset="1" stop-color="#009200"/>
</linearGradient>
<linearGradient id="paint11_linear_1484_41786" x1="1415.46" y1="393.6" x2="1427.74" y2="400.395" gradientUnits="userSpaceOnUse">
<stop stop-color="#D4082D"/>
<stop offset="0.0173" stop-color="#D7082E"/>
<stop offset="0.0308" stop-color="#E1082F"/>
<stop offset="0.0428" stop-color="#F10832"/>
<stop offset="0.05" stop-color="#FF0835"/>
<stop offset="0.15" stop-color="#D4082D"/>
<stop offset="0.5" stop-color="#FF0835"/>
<stop offset="0.85" stop-color="#B50827"/>
<stop offset="0.95" stop-color="#FF0835"/>
<stop offset="1" stop-color="#AF0826"/>
</linearGradient>
<linearGradient id="paint12_linear_1484_41786" x1="1181.04" y1="947.289" x2="1179.14" y2="964.329" gradientUnits="userSpaceOnUse">
<stop stop-color="#FF4AD1"/>
<stop offset="0.0147" stop-color="#FF4DD3"/>
<stop offset="0.026" stop-color="#FF57D9"/>
<stop offset="0.0363" stop-color="#FF67E2"/>
<stop offset="0.0459" stop-color="#FF7EF0"/>
<stop offset="0.05" stop-color="#FF8BF7"/>
<stop offset="0.15" stop-color="#FF4AD1"/>
<stop offset="0.5" stop-color="#FF8BF7"/>
<stop offset="0.85" stop-color="#FF30C2"/>
<stop offset="0.95" stop-color="#FF8BF7"/>
<stop offset="1" stop-color="#FF2ABE"/>
</linearGradient>
<linearGradient id="paint13_linear_1484_41786" x1="374.173" y1="973.775" x2="336.684" y2="935.671" gradientUnits="userSpaceOnUse">
<stop stop-color="#00B102"/>
<stop offset="0.0149" stop-color="#00B402"/>
<stop offset="0.0264" stop-color="#00BE03"/>
<stop offset="0.0368" stop-color="#00CE05"/>
<stop offset="0.0464" stop-color="#00E507"/>
<stop offset="0.05" stop-color="#00F008"/>
<stop offset="0.15" stop-color="#00B102"/>
<stop offset="0.5" stop-color="#00F008"/>
<stop offset="0.85" stop-color="#009700"/>
<stop offset="0.95" stop-color="#00F008"/>
<stop offset="1" stop-color="#009200"/>
</linearGradient>
<linearGradient id="paint14_linear_1484_41786" x1="543.368" y1="72.7986" x2="557.324" y2="76.2535" gradientUnits="userSpaceOnUse">
<stop stop-color="#00B102"/>
<stop offset="0.0149" stop-color="#00B402"/>
<stop offset="0.0264" stop-color="#00BE03"/>
<stop offset="0.0368" stop-color="#00CE05"/>
<stop offset="0.0464" stop-color="#00E507"/>
<stop offset="0.05" stop-color="#00F008"/>
<stop offset="0.15" stop-color="#00B102"/>
<stop offset="0.5" stop-color="#00F008"/>
<stop offset="0.85" stop-color="#009700"/>
<stop offset="0.95" stop-color="#00F008"/>
<stop offset="1" stop-color="#009200"/>
</linearGradient>
<linearGradient id="paint15_linear_1484_41786" x1="1193.2" y1="800.483" x2="1177.02" y2="803.791" gradientUnits="userSpaceOnUse">
<stop stop-color="#D4082D"/>
<stop offset="0.0173" stop-color="#D7082E"/>
<stop offset="0.0308" stop-color="#E1082F"/>
<stop offset="0.0428" stop-color="#F10832"/>
<stop offset="0.05" stop-color="#FF0835"/>
<stop offset="0.15" stop-color="#D4082D"/>
<stop offset="0.5" stop-color="#FF0835"/>
<stop offset="0.85" stop-color="#B50827"/>
<stop offset="0.95" stop-color="#FF0835"/>
<stop offset="1" stop-color="#AF0826"/>
</linearGradient>
<linearGradient id="paint16_linear_1484_41786" x1="1388.7" y1="43.991" x2="1436.01" y2="12.7426" gradientUnits="userSpaceOnUse">
<stop stop-color="#00B102"/>
<stop offset="0.0149" stop-color="#00B402"/>
<stop offset="0.0264" stop-color="#00BE03"/>
<stop offset="0.0368" stop-color="#00CE05"/>
<stop offset="0.0464" stop-color="#00E507"/>
<stop offset="0.05" stop-color="#00F008"/>
<stop offset="0.15" stop-color="#00B102"/>
<stop offset="0.5" stop-color="#00F008"/>
<stop offset="0.85" stop-color="#009700"/>
<stop offset="0.95" stop-color="#00F008"/>
<stop offset="1" stop-color="#009200"/>
</linearGradient>
<linearGradient id="paint17_linear_1484_41786" x1="816.326" y1="1012.89" x2="809.284" y2="1027.07" gradientUnits="userSpaceOnUse">
<stop stop-color="#00B102"/>
<stop offset="0.0149" stop-color="#00B402"/>
<stop offset="0.0264" stop-color="#00BE03"/>
<stop offset="0.0368" stop-color="#00CE05"/>
<stop offset="0.0464" stop-color="#00E507"/>
<stop offset="0.05" stop-color="#00F008"/>
<stop offset="0.15" stop-color="#00B102"/>
<stop offset="0.5" stop-color="#00F008"/>
<stop offset="0.85" stop-color="#009700"/>
<stop offset="0.95" stop-color="#00F008"/>
<stop offset="1" stop-color="#009200"/>
</linearGradient>
<linearGradient id="paint18_linear_1484_41786" x1="1378.14" y1="870.659" x2="1368.76" y2="858.438" gradientUnits="userSpaceOnUse">
<stop stop-color="#D4082D"/>
<stop offset="0.0173" stop-color="#D7082E"/>
<stop offset="0.0308" stop-color="#E1082F"/>
<stop offset="0.0428" stop-color="#F10832"/>
<stop offset="0.05" stop-color="#FF0835"/>
<stop offset="0.15" stop-color="#D4082D"/>
<stop offset="0.5" stop-color="#FF0835"/>
<stop offset="0.85" stop-color="#B50827"/>
<stop offset="0.95" stop-color="#FF0835"/>
<stop offset="1" stop-color="#AF0826"/>
</linearGradient>
<linearGradient id="paint19_linear_1484_41786" x1="673.8" y1="806.87" x2="658.635" y2="829.028" gradientUnits="userSpaceOnUse">
<stop stop-color="#FF4AD1"/>
<stop offset="0.0147" stop-color="#FF4DD3"/>
<stop offset="0.026" stop-color="#FF57D9"/>
<stop offset="0.0363" stop-color="#FF67E2"/>
<stop offset="0.0459" stop-color="#FF7EF0"/>
<stop offset="0.05" stop-color="#FF8BF7"/>
<stop offset="0.15" stop-color="#FF4AD1"/>
<stop offset="0.5" stop-color="#FF8BF7"/>
<stop offset="0.85" stop-color="#FF30C2"/>
<stop offset="0.95" stop-color="#FF8BF7"/>
<stop offset="1" stop-color="#FF2ABE"/>
</linearGradient>
<linearGradient id="paint20_linear_1484_41786" x1="228.235" y1="23.8034" x2="223.525" y2="5.73272" gradientUnits="userSpaceOnUse">
<stop stop-color="#FF4AD1"/>
<stop offset="0.0147" stop-color="#FF4DD3"/>
<stop offset="0.026" stop-color="#FF57D9"/>
<stop offset="0.0363" stop-color="#FF67E2"/>
<stop offset="0.0459" stop-color="#FF7EF0"/>
<stop offset="0.05" stop-color="#FF8BF7"/>
<stop offset="0.15" stop-color="#FF4AD1"/>
<stop offset="0.5" stop-color="#FF8BF7"/>
<stop offset="0.85" stop-color="#FF30C2"/>
<stop offset="0.95" stop-color="#FF8BF7"/>
<stop offset="1" stop-color="#FF2ABE"/>
</linearGradient>
<linearGradient id="paint21_linear_1484_41786" x1="1329.11" y1="560.227" x2="1348.13" y2="570.587" gradientUnits="userSpaceOnUse">
<stop stop-color="#0080FF"/>
<stop offset="0.0136" stop-color="#0283FF"/>
<stop offset="0.0241" stop-color="#078DFF"/>
<stop offset="0.0336" stop-color="#109DFF"/>
<stop offset="0.0424" stop-color="#1DB4FF"/>
<stop offset="0.05" stop-color="#2BCFFF"/>
<stop offset="0.15" stop-color="#0080FF"/>
<stop offset="0.5" stop-color="#26CCFF"/>
<stop offset="0.85" stop-color="#0074EA"/>
<stop offset="0.95" stop-color="#06BCFF"/>
<stop offset="1" stop-color="#0072E8"/>
</linearGradient>
<linearGradient id="paint22_linear_1484_41786" x1="1460.7" y1="640.376" x2="1414.52" y2="613.201" gradientUnits="userSpaceOnUse">
<stop stop-color="#D4082D"/>
<stop offset="0.0173" stop-color="#D7082E"/>
<stop offset="0.0308" stop-color="#E1082F"/>
<stop offset="0.0428" stop-color="#F10832"/>
<stop offset="0.05" stop-color="#FF0835"/>
<stop offset="0.15" stop-color="#D4082D"/>
<stop offset="0.5" stop-color="#FF0835"/>
<stop offset="0.85" stop-color="#B50827"/>
<stop offset="0.95" stop-color="#FF0835"/>
<stop offset="1" stop-color="#AF0826"/>
</linearGradient>
<linearGradient id="paint23_linear_1484_41786" x1="444.392" y1="959.211" x2="421.525" y2="1002.96" gradientUnits="userSpaceOnUse">
<stop stop-color="#FF4AD1"/>
<stop offset="0.0147" stop-color="#FF4DD3"/>
<stop offset="0.026" stop-color="#FF57D9"/>
<stop offset="0.0363" stop-color="#FF67E2"/>
<stop offset="0.0459" stop-color="#FF7EF0"/>
<stop offset="0.05" stop-color="#FF8BF7"/>
<stop offset="0.15" stop-color="#FF4AD1"/>
<stop offset="0.5" stop-color="#FF8BF7"/>
<stop offset="0.85" stop-color="#FF30C2"/>
<stop offset="0.95" stop-color="#FF8BF7"/>
<stop offset="1" stop-color="#FF2ABE"/>
</linearGradient>
<linearGradient id="paint24_linear_1484_41786" x1="116.842" y1="32.988" x2="144.859" y2="75.0237" gradientUnits="userSpaceOnUse">
<stop stop-color="#0080FF"/>
<stop offset="0.0136" stop-color="#0283FF"/>
<stop offset="0.0241" stop-color="#078DFF"/>
<stop offset="0.0336" stop-color="#109DFF"/>
<stop offset="0.0424" stop-color="#1DB4FF"/>
<stop offset="0.05" stop-color="#2BCFFF"/>
<stop offset="0.15" stop-color="#0080FF"/>
<stop offset="0.5" stop-color="#26CCFF"/>
<stop offset="0.85" stop-color="#0074EA"/>
<stop offset="0.95" stop-color="#06BCFF"/>
<stop offset="1" stop-color="#0072E8"/>
</linearGradient>
<linearGradient id="paint25_linear_1484_41786" x1="381.455" y1="648.067" x2="373.435" y2="636.757" gradientUnits="userSpaceOnUse">
<stop stop-color="#00B102"/>
<stop offset="0.0149" stop-color="#00B402"/>
<stop offset="0.0264" stop-color="#00BE03"/>
<stop offset="0.0368" stop-color="#00CE05"/>
<stop offset="0.0464" stop-color="#00E507"/>
<stop offset="0.05" stop-color="#00F008"/>
<stop offset="0.15" stop-color="#00B102"/>
<stop offset="0.5" stop-color="#00F008"/>
<stop offset="0.85" stop-color="#009700"/>
<stop offset="0.95" stop-color="#00F008"/>
<stop offset="1" stop-color="#009200"/>
</linearGradient>
<linearGradient id="paint26_linear_1484_41786" x1="283.867" y1="852.722" x2="277.416" y2="844.36" gradientUnits="userSpaceOnUse">
<stop stop-color="#FFA500"/>
<stop offset="0.018" stop-color="#FFA801"/>
<stop offset="0.032" stop-color="#FFB203"/>
<stop offset="0.0445" stop-color="#FFC206"/>
<stop offset="0.05" stop-color="#FFCC08"/>
<stop offset="0.15" stop-color="#FFA500"/>
<stop offset="0.5" stop-color="#FFCC08"/>
<stop offset="0.85" stop-color="#FF9100"/>
<stop offset="0.95" stop-color="#FFCC08"/>
<stop offset="1" stop-color="#FF8E00"/>
</linearGradient>
<linearGradient id="paint27_linear_1484_41786" x1="884.279" y1="976.29" x2="886.264" y2="992.766" gradientUnits="userSpaceOnUse">
<stop stop-color="#FF4AD1"/>
<stop offset="0.0147" stop-color="#FF4DD3"/>
<stop offset="0.026" stop-color="#FF57D9"/>
<stop offset="0.0363" stop-color="#FF67E2"/>
<stop offset="0.0459" stop-color="#FF7EF0"/>
<stop offset="0.05" stop-color="#FF8BF7"/>
<stop offset="0.15" stop-color="#FF4AD1"/>
<stop offset="0.5" stop-color="#FF8BF7"/>
<stop offset="0.85" stop-color="#FF30C2"/>
<stop offset="0.95" stop-color="#FF8BF7"/>
<stop offset="1" stop-color="#FF2ABE"/>
</linearGradient>
<linearGradient id="paint28_linear_1484_41786" x1="1327.06" y1="99.3185" x2="1369.74" y2="70.8813" gradientUnits="userSpaceOnUse">
<stop stop-color="#FFA500"/>
<stop offset="0.018" stop-color="#FFA801"/>
<stop offset="0.032" stop-color="#FFB203"/>
<stop offset="0.0445" stop-color="#FFC206"/>
<stop offset="0.05" stop-color="#FFCC08"/>
<stop offset="0.15" stop-color="#FFA500"/>
<stop offset="0.5" stop-color="#FFCC08"/>
<stop offset="0.85" stop-color="#FF9100"/>
<stop offset="0.95" stop-color="#FFCC08"/>
<stop offset="1" stop-color="#FF8E00"/>
</linearGradient>
<linearGradient id="paint29_linear_1484_41786" x1="126.417" y1="246.214" x2="136.88" y2="239.836" gradientUnits="userSpaceOnUse">
<stop stop-color="#D4082D"/>
<stop offset="0.0173" stop-color="#D7082E"/>
<stop offset="0.0308" stop-color="#E1082F"/>
<stop offset="0.0428" stop-color="#F10832"/>
<stop offset="0.05" stop-color="#FF0835"/>
<stop offset="0.15" stop-color="#D4082D"/>
<stop offset="0.5" stop-color="#FF0835"/>
<stop offset="0.85" stop-color="#B50827"/>
<stop offset="0.95" stop-color="#FF0835"/>
<stop offset="1" stop-color="#AF0826"/>
</linearGradient>
<linearGradient id="paint30_linear_1484_41786" x1="1115.48" y1="919.68" x2="1109.34" y2="903.899" gradientUnits="userSpaceOnUse">
<stop stop-color="#0080FF"/>
<stop offset="0.0136" stop-color="#0283FF"/>
<stop offset="0.0241" stop-color="#078DFF"/>
<stop offset="0.0336" stop-color="#109DFF"/>
<stop offset="0.0424" stop-color="#1DB4FF"/>
<stop offset="0.05" stop-color="#2BCFFF"/>
<stop offset="0.15" stop-color="#0080FF"/>
<stop offset="0.5" stop-color="#26CCFF"/>
<stop offset="0.85" stop-color="#0074EA"/>
<stop offset="0.95" stop-color="#06BCFF"/>
<stop offset="1" stop-color="#0072E8"/>
</linearGradient>
<linearGradient id="paint31_linear_1484_41786" x1="470.2" y1="13.2237" x2="476.068" y2="41.0497" gradientUnits="userSpaceOnUse">
<stop stop-color="#00B102"/>
<stop offset="0.0149" stop-color="#00B402"/>
<stop offset="0.0264" stop-color="#00BE03"/>
<stop offset="0.0368" stop-color="#00CE05"/>
<stop offset="0.0464" stop-color="#00E507"/>
<stop offset="0.05" stop-color="#00F008"/>
<stop offset="0.15" stop-color="#00B102"/>
<stop offset="0.5" stop-color="#00F008"/>
<stop offset="0.85" stop-color="#009700"/>
<stop offset="0.95" stop-color="#00F008"/>
<stop offset="1" stop-color="#009200"/>
</linearGradient>
<linearGradient id="paint32_linear_1484_41786" x1="1135.1" y1="74.7773" x2="1146.04" y2="62.7723" gradientUnits="userSpaceOnUse">
<stop stop-color="#FFA500"/>
<stop offset="0.018" stop-color="#FFA801"/>
<stop offset="0.032" stop-color="#FFB203"/>
<stop offset="0.0445" stop-color="#FFC206"/>
<stop offset="0.05" stop-color="#FFCC08"/>
<stop offset="0.15" stop-color="#FFA500"/>
<stop offset="0.5" stop-color="#FFCC08"/>
<stop offset="0.85" stop-color="#FF9100"/>
<stop offset="0.95" stop-color="#FFCC08"/>
<stop offset="1" stop-color="#FF8E00"/>
</linearGradient>
<linearGradient id="paint33_linear_1484_41786" x1="1279.22" y1="820.917" x2="1280.19" y2="835.942" gradientUnits="userSpaceOnUse">
<stop stop-color="#D4082D"/>
<stop offset="0.0173" stop-color="#D7082E"/>
<stop offset="0.0308" stop-color="#E1082F"/>
<stop offset="0.0428" stop-color="#F10832"/>
<stop offset="0.05" stop-color="#FF0835"/>
<stop offset="0.15" stop-color="#D4082D"/>
<stop offset="0.5" stop-color="#FF0835"/>
<stop offset="0.85" stop-color="#B50827"/>
<stop offset="0.95" stop-color="#FF0835"/>
<stop offset="1" stop-color="#AF0826"/>
</linearGradient>
<linearGradient id="paint34_linear_1484_41786" x1="362.436" y1="885.014" x2="349.887" y2="903.848" gradientUnits="userSpaceOnUse">
<stop stop-color="#FFA500"/>
<stop offset="0.018" stop-color="#FFA801"/>
<stop offset="0.032" stop-color="#FFB203"/>
<stop offset="0.0445" stop-color="#FFC206"/>
<stop offset="0.05" stop-color="#FFCC08"/>
<stop offset="0.15" stop-color="#FFA500"/>
<stop offset="0.5" stop-color="#FFCC08"/>
<stop offset="0.85" stop-color="#FF9100"/>
<stop offset="0.95" stop-color="#FFCC08"/>
<stop offset="1" stop-color="#FF8E00"/>
</linearGradient>
<linearGradient id="paint35_linear_1484_41786" x1="1077.57" y1="978.427" x2="1066.61" y2="958.302" gradientUnits="userSpaceOnUse">
<stop stop-color="#00B102"/>
<stop offset="0.0149" stop-color="#00B402"/>
<stop offset="0.0264" stop-color="#00BE03"/>
<stop offset="0.0368" stop-color="#00CE05"/>
<stop offset="0.0464" stop-color="#00E507"/>
<stop offset="0.05" stop-color="#00F008"/>
<stop offset="0.15" stop-color="#00B102"/>
<stop offset="0.5" stop-color="#00F008"/>
<stop offset="0.85" stop-color="#009700"/>
<stop offset="0.95" stop-color="#00F008"/>
<stop offset="1" stop-color="#009200"/>
</linearGradient>
<linearGradient id="paint36_linear_1484_41786" x1="1170.21" y1="19.7074" x2="1197.11" y2="-9.59026" gradientUnits="userSpaceOnUse">
<stop stop-color="#0080FF"/>
<stop offset="0.0136" stop-color="#0283FF"/>
<stop offset="0.0241" stop-color="#078DFF"/>
<stop offset="0.0336" stop-color="#109DFF"/>
<stop offset="0.0424" stop-color="#1DB4FF"/>
<stop offset="0.05" stop-color="#2BCFFF"/>
<stop offset="0.15" stop-color="#0080FF"/>
<stop offset="0.5" stop-color="#26CCFF"/>
<stop offset="0.85" stop-color="#0074EA"/>
<stop offset="0.95" stop-color="#06BCFF"/>
<stop offset="1" stop-color="#0072E8"/>
</linearGradient>
<linearGradient id="paint37_linear_1484_41786" x1="702.892" y1="993.35" x2="688.241" y2="1053.3" gradientUnits="userSpaceOnUse">
<stop stop-color="#00B102"/>
<stop offset="0.0149" stop-color="#00B402"/>
<stop offset="0.0264" stop-color="#00BE03"/>
<stop offset="0.0368" stop-color="#00CE05"/>
<stop offset="0.0464" stop-color="#00E507"/>
<stop offset="0.05" stop-color="#00F008"/>
<stop offset="0.15" stop-color="#00B102"/>
<stop offset="0.5" stop-color="#00F008"/>
<stop offset="0.85" stop-color="#009700"/>
<stop offset="0.95" stop-color="#00F008"/>
<stop offset="1" stop-color="#009200"/>
</linearGradient>
<linearGradient id="paint38_linear_1484_41786" x1="1471.72" y1="722.217" x2="1444.8" y2="701.352" gradientUnits="userSpaceOnUse">
<stop stop-color="#FFA500"/>
<stop offset="0.018" stop-color="#FFA801"/>
<stop offset="0.032" stop-color="#FFB203"/>
<stop offset="0.0445" stop-color="#FFC206"/>
<stop offset="0.05" stop-color="#FFCC08"/>
<stop offset="0.15" stop-color="#FFA500"/>
<stop offset="0.5" stop-color="#FFCC08"/>
<stop offset="0.85" stop-color="#FF9100"/>
<stop offset="0.95" stop-color="#FFCC08"/>
<stop offset="1" stop-color="#FF8E00"/>
</linearGradient>
<linearGradient id="paint39_linear_1484_41786" x1="902.383" y1="130.451" x2="920.416" y2="113.844" gradientUnits="userSpaceOnUse">
<stop stop-color="#0080FF"/>
<stop offset="0.0136" stop-color="#0283FF"/>
<stop offset="0.0241" stop-color="#078DFF"/>
<stop offset="0.0336" stop-color="#109DFF"/>
<stop offset="0.0424" stop-color="#1DB4FF"/>
<stop offset="0.05" stop-color="#2BCFFF"/>
<stop offset="0.15" stop-color="#0080FF"/>
<stop offset="0.5" stop-color="#26CCFF"/>
<stop offset="0.85" stop-color="#0074EA"/>
<stop offset="0.95" stop-color="#06BCFF"/>
<stop offset="1" stop-color="#0072E8"/>
</linearGradient>
<linearGradient id="paint40_linear_1484_41786" x1="538.623" y1="642.489" x2="535.045" y2="655.157" gradientUnits="userSpaceOnUse">
<stop stop-color="#00B102"/>
<stop offset="0.0149" stop-color="#00B402"/>
<stop offset="0.0264" stop-color="#00BE03"/>
<stop offset="0.0368" stop-color="#00CE05"/>
<stop offset="0.0464" stop-color="#00E507"/>
<stop offset="0.05" stop-color="#00F008"/>
<stop offset="0.15" stop-color="#00B102"/>
<stop offset="0.5" stop-color="#00F008"/>
<stop offset="0.85" stop-color="#009700"/>
<stop offset="0.95" stop-color="#00F008"/>
<stop offset="1" stop-color="#009200"/>
</linearGradient>
<linearGradient id="paint41_linear_1484_41786" x1="342.226" y1="-8.54915" x2="354.119" y2="12.2316" gradientUnits="userSpaceOnUse">
<stop stop-color="#FF4AD1"/>
<stop offset="0.0147" stop-color="#FF4DD3"/>
<stop offset="0.026" stop-color="#FF57D9"/>
<stop offset="0.0363" stop-color="#FF67E2"/>
<stop offset="0.0459" stop-color="#FF7EF0"/>
<stop offset="0.05" stop-color="#FF8BF7"/>
<stop offset="0.15" stop-color="#FF4AD1"/>
<stop offset="0.5" stop-color="#FF8BF7"/>
<stop offset="0.85" stop-color="#FF30C2"/>
<stop offset="0.95" stop-color="#FF8BF7"/>
<stop offset="1" stop-color="#FF2ABE"/>
</linearGradient>
<linearGradient id="paint42_linear_1484_41786" x1="925.7" y1="919.011" x2="930.193" y2="945.04" gradientUnits="userSpaceOnUse">
<stop stop-color="#D4082D"/>
<stop offset="0.0173" stop-color="#D7082E"/>
<stop offset="0.0308" stop-color="#E1082F"/>
<stop offset="0.0428" stop-color="#F10832"/>
<stop offset="0.05" stop-color="#FF0835"/>
<stop offset="0.15" stop-color="#D4082D"/>
<stop offset="0.5" stop-color="#FF0835"/>
<stop offset="0.85" stop-color="#B50827"/>
<stop offset="0.95" stop-color="#FF0835"/>
<stop offset="1" stop-color="#AF0826"/>
</linearGradient>
<linearGradient id="paint43_linear_1484_41786" x1="1250.42" y1="964.451" x2="1222.92" y2="960.721" gradientUnits="userSpaceOnUse">
<stop stop-color="#0080FF"/>
<stop offset="0.0136" stop-color="#0283FF"/>
<stop offset="0.0241" stop-color="#078DFF"/>
<stop offset="0.0336" stop-color="#109DFF"/>
<stop offset="0.0424" stop-color="#1DB4FF"/>
<stop offset="0.05" stop-color="#2BCFFF"/>
<stop offset="0.15" stop-color="#0080FF"/>
<stop offset="0.5" stop-color="#26CCFF"/>
<stop offset="0.85" stop-color="#0074EA"/>
<stop offset="0.95" stop-color="#06BCFF"/>
<stop offset="1" stop-color="#0072E8"/>
</linearGradient>
<linearGradient id="paint44_linear_1484_41786" x1="1172.94" y1="871.039" x2="1153.07" y2="830.479" gradientUnits="userSpaceOnUse">
<stop stop-color="#00B102"/>
<stop offset="0.0149" stop-color="#00B402"/>
<stop offset="0.0264" stop-color="#00BE03"/>
<stop offset="0.0368" stop-color="#00CE05"/>
<stop offset="0.0464" stop-color="#00E507"/>
<stop offset="0.05" stop-color="#00F008"/>
<stop offset="0.15" stop-color="#00B102"/>
<stop offset="0.5" stop-color="#00F008"/>
<stop offset="0.85" stop-color="#009700"/>
<stop offset="0.95" stop-color="#00F008"/>
<stop offset="1" stop-color="#009200"/>
</linearGradient>
<linearGradient id="paint45_linear_1484_41786" x1="1066.24" y1="192.183" x2="1083.76" y2="163.116" gradientUnits="userSpaceOnUse">
<stop stop-color="#00B102"/>
<stop offset="0.0149" stop-color="#00B402"/>
<stop offset="0.0264" stop-color="#00BE03"/>
<stop offset="0.0368" stop-color="#00CE05"/>
<stop offset="0.0464" stop-color="#00E507"/>
<stop offset="0.05" stop-color="#00F008"/>
<stop offset="0.15" stop-color="#00B102"/>
<stop offset="0.5" stop-color="#00F008"/>
<stop offset="0.85" stop-color="#009700"/>
<stop offset="0.95" stop-color="#00F008"/>
<stop offset="1" stop-color="#009200"/>
</linearGradient>
<linearGradient id="paint46_linear_1484_41786" x1="530.196" y1="1013.41" x2="526.832" y2="1030.65" gradientUnits="userSpaceOnUse">
<stop stop-color="#FFA500"/>
<stop offset="0.018" stop-color="#FFA801"/>
<stop offset="0.032" stop-color="#FFB203"/>
<stop offset="0.0445" stop-color="#FFC206"/>
<stop offset="0.05" stop-color="#FFCC08"/>
<stop offset="0.15" stop-color="#FFA500"/>
<stop offset="0.5" stop-color="#FFCC08"/>
<stop offset="0.85" stop-color="#FF9100"/>
<stop offset="0.95" stop-color="#FFCC08"/>
<stop offset="1" stop-color="#FF8E00"/>
</linearGradient>
<linearGradient id="paint47_linear_1484_41786" x1="157.343" y1="639.735" x2="148.525" y2="619.987" gradientUnits="userSpaceOnUse">
<stop stop-color="#0080FF"/>
<stop offset="0.0136" stop-color="#0283FF"/>
<stop offset="0.0241" stop-color="#078DFF"/>
<stop offset="0.0336" stop-color="#109DFF"/>
<stop offset="0.0424" stop-color="#1DB4FF"/>
<stop offset="0.05" stop-color="#2BCFFF"/>
<stop offset="0.15" stop-color="#0080FF"/>
<stop offset="0.5" stop-color="#26CCFF"/>
<stop offset="0.85" stop-color="#0074EA"/>
<stop offset="0.95" stop-color="#06BCFF"/>
<stop offset="1" stop-color="#0072E8"/>
</linearGradient>
<linearGradient id="paint48_linear_1484_41786" x1="1325.3" y1="932" x2="1311.04" y2="931.54" gradientUnits="userSpaceOnUse">
<stop stop-color="#D4082D"/>
<stop offset="0.0173" stop-color="#D7082E"/>
<stop offset="0.0308" stop-color="#E1082F"/>
<stop offset="0.0428" stop-color="#F10832"/>
<stop offset="0.05" stop-color="#FF0835"/>
<stop offset="0.15" stop-color="#D4082D"/>
<stop offset="0.5" stop-color="#FF0835"/>
<stop offset="0.85" stop-color="#B50827"/>
<stop offset="0.95" stop-color="#FF0835"/>
<stop offset="1" stop-color="#AF0826"/>
</linearGradient>
<linearGradient id="paint49_linear_1484_41786" x1="1013.76" y1="853.145" x2="1017.77" y2="896.503" gradientUnits="userSpaceOnUse">
<stop stop-color="#FF4AD1"/>
<stop offset="0.0147" stop-color="#FF4DD3"/>
<stop offset="0.026" stop-color="#FF57D9"/>
<stop offset="0.0363" stop-color="#FF67E2"/>
<stop offset="0.0459" stop-color="#FF7EF0"/>
<stop offset="0.05" stop-color="#FF8BF7"/>
<stop offset="0.15" stop-color="#FF4AD1"/>
<stop offset="0.5" stop-color="#FF8BF7"/>
<stop offset="0.85" stop-color="#FF30C2"/>
<stop offset="0.95" stop-color="#FF8BF7"/>
<stop offset="1" stop-color="#FF2ABE"/>
</linearGradient>
<linearGradient id="paint50_linear_1484_41786" x1="1311.17" y1="119.062" x2="1315.1" y2="129.265" gradientUnits="userSpaceOnUse">
<stop stop-color="#00B102"/>
<stop offset="0.0149" stop-color="#00B402"/>
<stop offset="0.0264" stop-color="#00BE03"/>
<stop offset="0.0368" stop-color="#00CE05"/>
<stop offset="0.0464" stop-color="#00E507"/>
<stop offset="0.05" stop-color="#00F008"/>
<stop offset="0.15" stop-color="#00B102"/>
<stop offset="0.5" stop-color="#00F008"/>
<stop offset="0.85" stop-color="#009700"/>
<stop offset="0.95" stop-color="#00F008"/>
<stop offset="1" stop-color="#009200"/>
</linearGradient>
<linearGradient id="paint51_linear_1484_41786" x1="1325.49" y1="914.479" x2="1293.12" y2="880.685" gradientUnits="userSpaceOnUse">
<stop stop-color="#FFA500"/>
<stop offset="0.018" stop-color="#FFA801"/>
<stop offset="0.032" stop-color="#FFB203"/>
<stop offset="0.0445" stop-color="#FFC206"/>
<stop offset="0.05" stop-color="#FFCC08"/>
<stop offset="0.15" stop-color="#FFA500"/>
<stop offset="0.5" stop-color="#FFCC08"/>
<stop offset="0.85" stop-color="#FF9100"/>
<stop offset="0.95" stop-color="#FFCC08"/>
<stop offset="1" stop-color="#FF8E00"/>
</linearGradient>
<linearGradient id="paint52_linear_1484_41786" x1="464.575" y1="937.931" x2="447.99" y2="915.101" gradientUnits="userSpaceOnUse">
<stop stop-color="#FF4AD1"/>
<stop offset="0.0147" stop-color="#FF4DD3"/>
<stop offset="0.026" stop-color="#FF57D9"/>
<stop offset="0.0363" stop-color="#FF67E2"/>
<stop offset="0.0459" stop-color="#FF7EF0"/>
<stop offset="0.05" stop-color="#FF8BF7"/>
<stop offset="0.15" stop-color="#FF4AD1"/>
<stop offset="0.5" stop-color="#FF8BF7"/>
<stop offset="0.85" stop-color="#FF30C2"/>
<stop offset="0.95" stop-color="#FF8BF7"/>
<stop offset="1" stop-color="#FF2ABE"/>
</linearGradient>
<linearGradient id="paint53_linear_1484_41786" x1="783.654" y1="800.473" x2="775.854" y2="769.182" gradientUnits="userSpaceOnUse">
<stop stop-color="#0080FF"/>
<stop offset="0.0136" stop-color="#0283FF"/>
<stop offset="0.0241" stop-color="#078DFF"/>
<stop offset="0.0336" stop-color="#109DFF"/>
<stop offset="0.0424" stop-color="#1DB4FF"/>
<stop offset="0.05" stop-color="#2BCFFF"/>
<stop offset="0.15" stop-color="#0080FF"/>
<stop offset="0.5" stop-color="#26CCFF"/>
<stop offset="0.85" stop-color="#0074EA"/>
<stop offset="0.95" stop-color="#06BCFF"/>
<stop offset="1" stop-color="#0072E8"/>
</linearGradient>
<linearGradient id="paint54_linear_1484_41786" x1="858.411" y1="60.6366" x2="872.381" y2="70.9457" gradientUnits="userSpaceOnUse">
<stop stop-color="#FFA500"/>
<stop offset="0.018" stop-color="#FFA801"/>
<stop offset="0.032" stop-color="#FFB203"/>
<stop offset="0.0445" stop-color="#FFC206"/>
<stop offset="0.05" stop-color="#FFCC08"/>
<stop offset="0.15" stop-color="#FFA500"/>
<stop offset="0.5" stop-color="#FFCC08"/>
<stop offset="0.85" stop-color="#FF9100"/>
<stop offset="0.95" stop-color="#FFCC08"/>
<stop offset="1" stop-color="#FF8E00"/>
</linearGradient>
<linearGradient id="paint55_linear_1484_41786" x1="1480.36" y1="262.247" x2="1446.32" y2="285.826" gradientUnits="userSpaceOnUse">
<stop stop-color="#00B102"/>
<stop offset="0.0149" stop-color="#00B402"/>
<stop offset="0.0264" stop-color="#00BE03"/>
<stop offset="0.0368" stop-color="#00CE05"/>
<stop offset="0.0464" stop-color="#00E507"/>
<stop offset="0.05" stop-color="#00F008"/>
<stop offset="0.15" stop-color="#00B102"/>
<stop offset="0.5" stop-color="#00F008"/>
<stop offset="0.85" stop-color="#009700"/>
<stop offset="0.95" stop-color="#00F008"/>
<stop offset="1" stop-color="#009200"/>
</linearGradient>
<linearGradient id="paint56_linear_1484_41786" x1="604.157" y1="1004.15" x2="595.005" y2="1031.97" gradientUnits="userSpaceOnUse">
<stop stop-color="#00B102"/>
<stop offset="0.0149" stop-color="#00B402"/>
<stop offset="0.0264" stop-color="#00BE03"/>
<stop offset="0.0368" stop-color="#00CE05"/>
<stop offset="0.0464" stop-color="#00E507"/>
<stop offset="0.05" stop-color="#00F008"/>
<stop offset="0.15" stop-color="#00B102"/>
<stop offset="0.5" stop-color="#00F008"/>
<stop offset="0.85" stop-color="#009700"/>
<stop offset="0.95" stop-color="#00F008"/>
<stop offset="1" stop-color="#009200"/>
</linearGradient>
</defs>
</svg>
