<svg viewBox="0 0 188 67" fill="none" xmlns="http://www.w3.org/2000/svg">
<path d="M147.695 40.1898C145.947 39.4423 144.199 38.895 142.609 37.6537C144.041 37.5736 145.132 38.2544 146.341 38.5347C144.62 37.1065 142.78 35.8384 141.44 33.9831C142.859 34.9308 144.278 35.8651 145.697 36.8128C145.737 36.7728 145.776 36.7461 145.802 36.706C144.843 35.6916 143.897 34.6905 142.938 33.6761C142.977 33.6094 143.016 33.5426 143.056 33.4759C143.45 33.6895 143.91 33.8229 144.225 34.1299C145.5 35.3446 146.722 36.6126 147.957 37.8673C148.286 38.201 148.575 38.548 148.943 38.9484C149.206 38.6948 149.403 38.4813 149.613 38.3077C149.981 38.0274 149.915 37.7605 149.692 37.4135C148.049 34.9041 145.868 32.9553 143.332 31.4737C141.387 30.3392 139.284 29.485 137.261 28.4972C136.394 28.0701 135.539 27.6163 134.672 27.1758C134.712 27.069 134.738 26.9622 134.777 26.8555C135.421 26.9889 136.078 27.1091 136.867 27.2692C135.618 26.1881 134.212 25.4807 133.424 24.1059C133.463 24.0525 133.489 23.9857 133.529 23.9323C135.106 24.9201 136.669 25.9078 138.417 27.0023C137.248 25.3872 136.196 23.9457 135.158 22.5041C135.211 22.4507 135.263 22.3974 135.329 22.344C135.868 22.8779 136.433 23.3717 136.932 23.9323C138.273 25.454 139.534 27.0557 140.927 28.5106C141.571 29.178 142.451 29.6051 143.214 30.1523C144.252 30.8865 145.277 31.6339 146.407 32.4481C146.328 32.2079 146.302 32.0477 146.223 31.9276C144.055 28.2169 141.676 24.6398 138.654 21.5698C138.128 21.0359 137.419 20.6488 136.735 20.3285C135.566 19.7946 134.33 19.3941 133.135 18.927C132.412 18.6467 131.702 18.3263 131.203 17.6856C131.229 17.6055 131.256 17.5388 131.282 17.4587C132.32 17.7257 133.371 18.006 134.409 18.2729C132.372 16.4043 130.152 14.7225 128.785 12.2131C130.638 13.7614 132.491 15.3098 134.33 16.8714C134.383 16.8314 134.436 16.778 134.475 16.738C133.476 15.2964 132.478 13.8415 131.492 12.4C131.558 12.3332 131.623 12.2665 131.689 12.1998C132.005 12.4667 132.372 12.6936 132.622 13.014C133.7 14.4288 134.685 15.9371 135.828 17.3119C136.801 18.4731 137.957 19.4876 138.969 20.6088C139.902 21.6365 140.756 22.731 141.637 23.7989C141.768 23.959 141.913 24.1325 142.044 24.2927C142.097 24.266 142.149 24.2393 142.215 24.1993C142.044 23.7989 141.873 23.3851 141.689 22.998C140.822 21.1694 140.06 19.2607 139.035 17.5255C137.642 15.1763 135.934 13.054 133.739 11.3989C133.174 10.9718 132.451 10.7849 131.781 10.5046C130.782 10.0775 129.705 9.79718 128.89 8.86284C130.073 8.58254 131.019 9.3834 132.267 9.58361C131.177 8.38232 129.574 7.94185 129.048 6.44692C129.1 6.36683 129.14 6.30009 129.192 6.22C129.705 6.51365 130.231 6.82065 130.835 7.16769C130.362 6.31344 129.928 5.53927 129.508 4.75176C129.547 4.71172 129.587 4.67168 129.626 4.63164C129.902 4.85854 130.217 5.04541 130.428 5.31237C131.781 7.03421 133.082 8.7961 134.449 10.4913C135.645 11.9728 136.906 13.4144 138.233 14.8159C137.76 13.708 137.327 12.5868 136.801 11.5057C136.144 10.1309 135.658 8.66262 134.554 7.55477C133.056 6.05983 131.584 4.55155 130.112 3.02992C129.692 2.58945 129.337 2.09558 129.035 1.53498C130.809 2.38923 132.018 3.93756 133.437 5.23228C133.489 5.19224 133.542 5.16554 133.595 5.1255C132.793 3.45704 131.991 1.80193 131.177 0.133476C131.242 0.0934335 131.321 0.0400429 131.387 0C132.662 1.92206 133.949 3.84412 135.224 5.76618C135.263 5.75284 135.316 5.73949 135.355 5.72614C135.106 4.35134 134.856 2.98987 134.62 1.61507C134.698 1.58837 134.777 1.56168 134.856 1.54833C134.961 1.82863 135.093 2.09558 135.145 2.38923C135.395 3.63056 135.539 4.89859 135.894 6.09988C136.354 7.62151 136.972 9.08975 137.563 10.558C137.892 11.3855 138.312 12.1864 138.798 12.9873C138.851 10.4646 138.102 7.9819 138.391 5.45919C138.47 5.44584 138.535 5.43249 138.614 5.4058C138.838 6.00644 139.048 6.60709 139.271 7.20773C139.311 7.20773 139.35 7.20773 139.39 7.20773C139.587 6.11322 139.784 5.00537 140.007 3.80408C140.638 4.2579 140.599 4.76511 140.546 5.23228C140.323 7.16769 140.073 9.1031 139.836 11.0252C139.81 11.212 139.836 11.3989 139.902 11.5991C140.625 10.3845 140.901 8.94292 141.873 7.90181C141.939 7.91516 142.005 7.94185 142.057 7.9552C142.044 8.15541 142.07 8.36897 142.005 8.54249C141.676 9.55692 141.348 10.558 140.98 11.5591C140.375 13.1875 140.047 14.8559 140.336 16.5778C140.493 17.4988 140.914 18.3797 141.295 19.2473C142.254 21.463 143.24 23.6654 144.252 25.8544C144.712 26.8555 145.237 27.8165 145.737 28.8042C145.815 28.7909 145.881 28.7642 145.96 28.7508C145.868 28.2169 145.815 27.6697 145.697 27.1358C145.395 25.8544 145.053 24.573 144.738 23.2916C144.436 22.0904 144.107 20.9024 143.857 19.6878C143.713 18.967 143.687 18.2195 143.608 17.4854C143.7 17.4587 143.779 17.4454 143.871 17.4187C144.199 18.2062 144.541 19.0071 144.935 19.9681C145.158 18.6066 145.355 17.4053 145.553 16.204C145.618 16.204 145.684 16.2174 145.737 16.2174C145.829 17.8458 145.921 19.4876 146.026 21.116C146.078 21.1293 146.131 21.1293 146.196 21.1427C146.656 20.1016 146.775 18.8869 147.839 18.1128C147.76 18.5933 147.708 19.0604 147.603 19.541C147.221 21.2628 146.709 22.9713 146.459 24.7198C146.328 25.6809 146.604 26.6953 146.748 27.683C146.946 28.9777 146.972 30.3659 147.484 31.5138C148.365 33.4759 149.574 35.2778 150.691 37.2399C151.019 36.9196 151.203 36.7194 151.413 36.5325C151.729 36.2522 151.729 35.9853 151.571 35.5982C150.993 34.2367 150.441 32.8619 149.915 31.4871C149.758 31.06 149.731 30.5928 149.653 30.139C149.731 30.1123 149.797 30.0723 149.876 30.0456C150.323 30.8998 150.783 31.7407 151.335 32.7818C151.229 30.6729 150.704 28.7508 151.269 26.8154C152.031 28.0568 151.768 29.565 152.294 31.0466C152.596 29.9655 152.859 29.0311 153.122 28.0701C153.779 28.257 153.779 28.6707 153.687 29.0979C153.437 30.3525 153.148 31.6072 152.898 32.8619C152.793 33.4225 152.754 33.9965 152.701 34.5704C152.688 34.7039 152.793 34.8374 152.872 35.091C155.776 32.1945 158.614 29.3648 161.453 26.5351C159.994 24.88 159.508 22.9846 159.981 20.9158C160.165 20.1283 160.572 19.3007 161.111 18.7134C166.184 13.094 171.308 7.51473 176.42 1.92206C176.473 1.85533 176.552 1.81528 176.617 1.76189C177.498 2.2691 177.616 2.90979 176.985 3.64391C173.122 8.15541 169.245 12.6669 165.395 17.1918C165.132 17.4988 164.777 17.8325 165.198 18.2863C165.553 18.66 166.249 18.7401 166.643 18.3931C167.195 17.8858 167.708 17.3386 168.233 16.8047C171.952 12.9739 175.684 9.14314 179.403 5.31237C179.561 5.15219 179.679 4.96533 179.81 4.8185C180.796 5.35241 180.927 5.99309 180.257 6.76726C176.433 11.2254 172.609 15.6968 168.799 20.1549C168.483 20.5153 167.984 20.8891 168.549 21.4363C168.956 21.8368 169.666 21.77 170.139 21.2895C172.32 19.0471 174.488 16.778 176.696 14.5489C178.877 12.3599 181.085 10.2109 183.332 8.00859C184.055 8.38232 184.199 9.0764 183.582 9.79718C179.745 14.2686 175.908 18.7534 172.071 23.2383C171.781 23.5719 171.243 23.9056 171.755 24.4662C172.176 24.9334 172.872 24.9067 173.398 24.3862C175.04 22.7177 176.67 21.0359 178.299 19.3541C180.862 16.7113 183.424 14.0551 186 11.4122C186.157 11.2521 186.315 11.1186 186.617 10.8249C186.88 11.3588 187.104 11.8127 187.327 12.2798C185.789 13.9616 184.291 15.6167 182.793 17.2585C179.232 21.156 175.632 25.0135 172.136 28.9644C169.994 31.3937 166.657 31.4471 164.62 29.4182C164.554 29.3515 164.488 29.3114 164.37 29.218C164.16 29.4716 163.936 29.7119 163.739 29.9655C161.847 32.2479 159.955 34.5304 158.063 36.7861C157.773 37.1332 157.695 37.4268 157.852 37.8673C158.168 38.7883 158.404 39.7359 158.693 40.6703C158.746 40.8571 158.851 41.0307 158.996 41.2042C159.206 39.6826 158.641 38.1209 159.35 36.4791C159.534 37.1198 159.745 37.6137 159.81 38.1209C159.981 39.5758 160.047 41.0307 160.244 42.4856C160.507 44.421 160.888 46.343 162.018 47.9981C163.03 49.4931 163.989 51.0414 165.067 52.4963C165.526 53.1236 166.184 53.6175 166.788 54.1247C168.207 55.3126 169.64 56.4739 171.072 57.6485C171.203 57.7553 171.348 57.822 171.545 57.9421C170.113 56.2069 168.667 54.5785 167.353 52.8433C166.039 51.1215 164.567 49.5064 163.66 47.5043C163.726 47.4509 163.805 47.3842 163.871 47.3308C164.791 48.4386 165.71 49.5331 166.735 50.7478C166 48.9458 165.329 47.2907 164.659 45.6223C164.738 45.5822 164.817 45.5555 164.896 45.5155C165.947 47.5577 166.801 49.72 168.273 51.5219C168.036 49.9602 167.8 48.4119 167.563 46.8502C168.47 47.5176 168.523 48.492 168.733 49.3863C168.956 50.374 169.14 51.3751 169.324 52.3762C169.6 53.8444 170.139 55.1658 171.216 56.247C172.649 57.7019 173.923 59.3703 175.487 60.6651C177.09 61.9865 178.93 63.0142 180.717 64.0954C182.11 64.923 183.582 65.6304 185.014 66.3778C185.146 66.4446 185.264 66.538 185.316 66.7249C184.423 66.3512 183.477 66.0442 182.623 65.5903C180.297 64.3357 178.023 62.9609 175.684 61.7195C173.463 60.5449 171.23 59.3303 168.89 58.4226C167.603 57.9288 166.092 58.0222 164.685 57.9021C163.66 57.8087 162.636 57.822 161.611 57.7286C161.256 57.7019 160.914 57.515 160.572 57.2881C161.703 56.6207 162.911 57.0078 164.094 56.7942C162.425 56.2737 160.77 55.7531 159.101 55.2326C159.114 55.1525 159.127 55.0857 159.153 55.0057C159.771 54.6453 160.415 54.8188 161.059 54.9656C161.676 55.0991 162.294 55.2726 162.951 55.286C161.4 54.3249 159.85 53.3505 158.299 52.3895C159.915 52.5497 161.282 53.3105 162.662 54.0313C164.265 54.8855 165.829 55.8332 167.432 56.7008C168.115 57.0612 168.851 57.3281 169.561 57.6351C169.6 57.5817 169.626 57.5284 169.666 57.475C169.18 57.0612 168.693 56.6608 168.207 56.2336C165.067 53.4573 161.479 51.3884 157.734 49.6132C156.801 49.1727 155.658 49.1727 154.607 48.9458C153.582 48.7323 152.557 48.532 151.545 48.2784C151.229 48.1984 150.94 47.9714 150.533 47.7579C151.545 47.1439 152.465 47.7445 153.542 47.6378C152.425 47.0505 151.453 46.5566 150.441 46.036C149.429 47.2507 148.43 48.452 147.432 49.6532C143.148 54.8321 138.864 59.9977 134.58 65.1766C133.516 66.4579 132.162 66.8984 130.572 66.4713C128.956 66.0308 128.049 64.8963 127.721 63.2411C127.379 61.5326 127.839 60.1445 129.087 58.9032C135.145 52.9101 141.164 46.8903 147.195 40.8705C147.287 40.6302 147.458 40.43 147.695 40.1898ZM157.274 37.6404C156.433 38.6414 155.671 39.5224 154.948 40.4434C154.83 40.5902 154.83 40.9506 154.922 41.1374C155.855 43.0595 157.077 44.7814 158.549 46.3163C158.943 46.7301 159.285 47.1973 159.666 47.6111C160.139 48.1316 160.651 48.6121 161.151 49.1193C161.229 49.0526 161.308 48.9992 161.387 48.9325C160.704 47.7178 160.021 46.4899 159.324 45.2752C158.365 43.5934 157.379 41.9116 156.446 40.2165C156.275 39.9095 156.289 39.4823 156.21 39.1086C156.302 39.0686 156.394 39.0285 156.486 38.9885C157.064 39.9362 157.655 40.8838 158.233 41.8182C158.286 41.7915 158.325 41.7781 158.378 41.7514C158.036 40.4434 157.668 39.1086 157.274 37.6404ZM151.913 44.1006C154.449 46.9437 157.681 48.5187 160.94 50.0804C158.299 47.6644 156.105 44.7413 152.872 42.926C152.557 43.3265 152.241 43.7135 151.913 44.1006Z" fill="#4E9968"/>
<path d="M0 17.2646C0 17.1666 0.0559997 17.1176 0.167999 17.1176C0.313183 17.1176 0.543404 17.2134 0.858662 17.4051C3.78724 19.2621 7.58899 20.1906 12.2639 20.1906C15.1261 20.1906 17.9157 19.6817 20.6328 18.6637C21.1098 18.4806 21.6034 18.1824 22.1136 17.7693C22.5368 17.3689 22.9661 16.9728 23.4016 16.5809L23.4514 16.5043C23.4514 16.3722 23.188 16.2679 22.6612 16.1912C22.3708 16.1273 22.0639 16.0826 21.7403 16.0571C21.5371 16.023 21.3089 15.9144 21.0559 15.7312C20.7738 15.5566 20.6245 15.3649 20.6079 15.1562V14.6579C20.6079 13.8359 20.9667 12.9393 21.6843 11.9682C22.4019 10.9971 23.1341 10.437 23.8807 10.288C24.2831 10.4626 24.4843 10.7373 24.4843 11.1121C24.4843 11.2782 24.4407 11.5146 24.3536 11.8213C24.2458 12.1492 24.111 12.3281 23.9492 12.3579C23.6173 12.0087 23.3996 11.834 23.2959 11.834C23.0262 11.834 22.6114 12.1556 22.0514 12.7988C21.4956 13.4376 21.2177 13.904 21.2177 14.1979C21.2177 14.2959 21.2322 14.3576 21.2612 14.3832C21.564 14.5919 21.844 14.7133 22.1012 14.7474C22.9391 14.8709 23.3809 14.9411 23.4265 14.9582C23.9367 15.1158 24.1919 15.448 24.1919 15.9548C24.1919 16.7641 23.8434 17.5627 23.1465 18.3507C22.5326 19.0023 21.8191 19.4985 21.0061 19.8392C19.7285 20.3546 18.287 20.7869 16.6817 21.1362C15.01 21.5025 13.5291 21.6856 12.239 21.6856C8.76291 21.6856 6.02722 21.2916 4.03198 20.5037C3.57983 20.295 3.29776 20.1651 3.18576 20.114C2.4308 19.5901 1.82932 19.1535 1.38133 18.8043C0.460442 17.995 0 17.4818 0 17.2646Z" fill="#4E9968"/>
<path d="M25.4674 6.40355C25.5711 5.71355 25.737 5.27273 25.9652 5.08106C26.0025 5.12365 26.0336 5.15347 26.0585 5.1705C26.1664 5.76254 26.295 6.72086 26.4443 8.04548C26.5936 9.36583 26.7181 10.5542 26.8176 11.6104C26.9213 12.6667 26.9732 13.2247 26.9732 13.2843C26.9732 13.4078 26.9421 13.6038 26.8798 13.8721C26.8218 14.1362 26.6994 14.315 26.5127 14.4087C26.38 13.3269 26.2472 12.2515 26.1145 11.1824C25.9859 10.1133 25.8449 9.0613 25.6914 8.02631C25.5421 6.98706 25.4674 6.44614 25.4674 6.40355Z" fill="#4E9968"/>
<path d="M31.1171 13.0863C31.1171 12.737 31.2644 12.1748 31.5589 11.3996C31.8825 10.6415 32.1604 10.1261 32.3927 9.85351C32.9444 10.1517 33.3385 10.4179 33.5749 10.6521C33.8985 10.9929 34.0602 11.4337 34.0602 11.9746C34.0602 12.9713 33.7284 13.6825 33.0647 14.1085C33.0149 14.1937 32.8656 14.2597 32.6167 14.3065C32.372 14.3491 32.1811 14.3704 32.0443 14.3704C31.7497 14.3704 31.5133 14.2299 31.3349 13.9488C31.1897 13.6889 31.1171 13.4014 31.1171 13.0863ZM31.8949 12.4985C31.8949 12.5964 31.9509 12.6987 32.0629 12.8052C32.1791 12.9074 32.2703 12.9585 32.3367 12.9585H32.5296C32.9361 12.9585 33.1995 12.8712 33.3198 12.6965C33.3198 12.3814 33.214 12.1045 33.0025 11.866C32.7909 11.6232 32.5524 11.4763 32.2869 11.4252C32.0256 11.8894 31.8949 12.2472 31.8949 12.4985Z" fill="#4E9968"/>
<path d="M34.4025 18.2548C34.4025 18.1696 34.7053 18.0397 35.3109 17.8651C36.2193 17.5584 36.8436 17.3008 37.1838 17.0921C37.8184 16.7087 38.2519 16.2679 38.4842 15.7696C38.5257 15.646 38.5464 15.5758 38.5464 15.5587C38.5464 15.0178 38.4987 14.577 38.4033 14.2362C38.3535 14.0914 38.1586 13.674 37.8184 12.984C37.8724 12.294 37.9657 11.8788 38.0984 11.7382L38.3535 11.8979C38.5941 12.2813 38.731 12.4942 38.7642 12.5368C38.9177 12.7114 39.1292 12.8392 39.3989 12.9201C39.7307 13.0564 39.9444 13.1033 40.0398 13.0607V14.3832C39.7162 14.4002 39.3968 14.3619 39.0815 14.2682V14.8687C39.0815 15.661 38.8596 16.4021 38.4158 17.0921C37.9761 17.782 37.4078 18.274 36.7109 18.5679C35.1719 18.6147 34.4025 18.5104 34.4025 18.2548Z" fill="#4E9968"/>
<path d="M39.7909 13.0607C40.0024 13.0692 40.3115 12.9819 40.718 12.7988C41.1245 12.6156 41.3672 12.524 41.446 12.524C41.5995 12.524 41.8649 12.6135 42.2424 12.7924C42.6199 12.9713 42.9227 13.0607 43.1509 13.0607V14.3832C42.8895 14.3832 42.5743 14.2852 42.2051 14.0893C41.8359 13.8934 41.5829 13.7954 41.446 13.7954C41.3838 13.7954 41.1701 13.8934 40.8051 14.0893C40.4401 14.2852 40.1393 14.3832 39.9029 14.3832H39.7909V13.0607ZM41.5455 16.5618C41.7405 15.9783 41.9189 15.6567 42.0806 15.5971C42.2258 15.6737 42.3834 15.7696 42.5535 15.8846C42.7319 16.0336 42.8543 16.1678 42.9206 16.2871C42.792 16.96 42.6095 17.2965 42.3731 17.2965C42.286 17.2965 42.1283 17.2049 41.9002 17.0218C41.7218 16.8301 41.6036 16.6768 41.5455 16.5618ZM40.0522 17.1496C40.0522 16.9494 40.2057 16.6235 40.5126 16.1721C40.9814 16.5043 41.2821 16.7385 41.4149 16.8748V16.9196C41.4149 17.0729 41.3734 17.2603 41.2904 17.4818C41.195 17.716 41.1017 17.8332 41.0104 17.8332C40.9067 17.8332 40.7201 17.7437 40.4504 17.5648C40.1849 17.3859 40.0522 17.2475 40.0522 17.1496Z" fill="#4E9968"/>
<path d="M42.8709 13.0607C43.5429 13.0607 44.2626 12.9734 45.03 12.7988C45.8596 12.5815 46.5461 12.3153 47.0895 12.0002C46.0276 11.6339 45.4261 11.4507 45.2851 11.4507C45.1067 11.4507 44.8288 11.5146 44.4513 11.6424C44.078 11.7702 43.7897 11.834 43.5864 11.834C43.7897 11.1015 43.91 10.7203 43.9473 10.6904C44.0551 10.4817 44.3268 10.2603 44.7624 10.026C44.9117 9.94083 45.1191 9.89823 45.3846 9.89823C45.4966 9.89823 45.955 10.0771 46.7597 10.4349C47.6516 10.8438 48.1867 11.078 48.365 11.1377C49.2901 11.4273 50.1695 11.5721 51.0033 11.5721C51.0821 11.6403 51.1256 11.6956 51.1339 11.7382C51.1339 11.8958 51.0261 12.2067 50.8104 12.671H50.5988C50.0347 12.671 49.6095 12.6263 49.3233 12.5368L49.2859 12.7221L49.3233 12.9457C49.4933 13.1203 49.7443 13.2076 50.0761 13.2076C50.5739 13.2076 51.0406 13.1587 51.4761 13.0607V14.3832L50.1135 14.4087C49.7816 14.4173 49.5079 14.3065 49.2921 14.0765C49.0806 13.8465 48.9748 13.5612 48.9748 13.2204C48.9748 13.1651 48.9831 13.0841 48.9997 12.9776C49.0204 12.8669 49.0308 12.7817 49.0308 12.7221V12.5368C48.6367 12.5368 48.1763 12.6284 47.6495 12.8115C46.9277 13.0841 46.3636 13.3205 45.9571 13.5207C45.1606 13.8529 44.6815 14.0403 44.5197 14.0829C43.9763 14.2831 43.4744 14.3832 43.014 14.3832H42.8709V13.0607ZM46.0379 16.5426C46.2246 15.8697 46.4196 15.5161 46.6228 15.4821C46.7514 15.4991 46.9215 15.5694 47.1331 15.6929C47.3985 15.8675 47.5313 16.0166 47.5313 16.1401C47.5313 16.2338 47.4877 16.3978 47.4006 16.6321C47.3176 16.845 47.2285 16.9941 47.1331 17.0793H47.0708C46.9091 17.0793 46.7141 17.0218 46.4859 16.9068C46.1873 16.8131 46.0379 16.6917 46.0379 16.5426Z" fill="#4E9968"/>
<path d="M50.9473 8.92074C51.1339 8.24779 51.3289 7.89427 51.5321 7.8602C51.6607 7.87724 51.8308 7.94751 52.0424 8.07103C52.3078 8.24566 52.4406 8.39473 52.4406 8.51825C52.4406 8.61195 52.397 8.77593 52.3099 9.01019C52.2269 9.22315 52.1378 9.37222 52.0424 9.45741H51.9801C51.8184 9.45741 51.6234 9.39991 51.3952 9.28491C51.0966 9.19121 50.9473 9.06982 50.9473 8.92074ZM51.2646 13.0607C51.8412 13.0692 52.1668 12.9436 52.2415 12.6838C52.2166 12.5773 52.1149 12.3771 51.9366 12.0832C51.7831 11.8362 51.6939 11.6296 51.669 11.4635C51.7644 11.1866 51.8785 10.8779 52.0112 10.5371H52.0672C52.2539 10.5371 52.4323 10.8118 52.6024 11.3613C52.7807 11.8426 52.8699 12.2216 52.8699 12.4985C52.8699 13.099 52.7766 13.5484 52.5899 13.8465C52.3659 14.2043 51.9822 14.3832 51.4388 14.3832H51.2646V13.0607Z" fill="#4E9968"/>
<path d="M52.4406 17.0537C53.5772 16.9813 54.2471 16.9196 54.4503 16.8684C55.0518 16.6768 55.6388 16.2956 56.2112 15.7248C56.7878 15.1541 57.1777 14.5536 57.381 13.9232C57.186 13.5739 56.9994 13.2311 56.821 12.8946C56.5306 12.3324 56.3854 11.964 56.3854 11.7893L56.429 11.6488C56.4456 11.6147 56.4995 11.4741 56.5908 11.2271C56.6613 11.0099 56.7297 10.9013 56.7961 10.9013C56.9911 10.9013 57.2213 11.193 57.4868 11.7765C57.7564 12.2834 57.8912 12.6646 57.8912 12.9201C57.8912 14.6196 57.3893 15.9889 56.3854 17.0282C55.9126 17.4967 55.4251 17.7309 54.9232 17.7309C54.6246 17.7309 53.8675 17.6223 52.6521 17.4051C52.6189 17.3795 52.5484 17.3008 52.4406 17.1687V17.0537ZM55.2032 9.51491C55.3899 8.84195 55.5849 8.48843 55.7881 8.45436C55.9167 8.4714 56.0868 8.54167 56.2983 8.66519C56.5638 8.83982 56.6965 8.98889 56.6965 9.11241C56.6965 9.20611 56.653 9.37009 56.5659 9.60435C56.4829 9.81731 56.3937 9.96638 56.2983 10.0516H56.2361C56.0743 10.0516 55.8794 9.99407 55.6512 9.87907C55.3526 9.78537 55.2032 9.66398 55.2032 9.51491Z" fill="#4E9968"/>
<path d="M43.7544 17.2646C43.7544 17.1666 43.8104 17.1176 43.9224 17.1176C44.0676 17.1176 44.2978 17.2134 44.6131 17.4051C47.5416 19.2621 51.3434 20.1906 56.0183 20.1906C58.8805 20.1906 61.6702 19.6817 64.3872 18.6637C64.8642 18.4806 65.3578 18.1824 65.868 17.7693C66.2912 17.3689 66.7205 16.9728 67.156 16.5809L67.2058 16.5043C67.2058 16.3722 66.9424 16.2679 66.4156 16.1912C66.1252 16.1273 65.8183 16.0826 65.4947 16.0571C65.2915 16.023 65.0633 15.9144 64.8103 15.7312C64.5282 15.5566 64.3789 15.3649 64.3623 15.1562V14.6579C64.3623 13.8359 64.7211 12.9393 65.4387 11.9682C66.1563 10.9971 66.8885 10.437 67.6351 10.288C68.0375 10.4626 68.2387 10.7373 68.2387 11.1121C68.2387 11.2782 68.1951 11.5146 68.108 11.8213C68.0002 12.1492 67.8654 12.3281 67.7036 12.3579C67.3717 12.0087 67.154 11.834 67.0503 11.834C66.7806 11.834 66.3658 12.1556 65.8058 12.7988C65.25 13.4376 64.9721 13.904 64.9721 14.1979C64.9721 14.2959 64.9866 14.3576 65.0156 14.3832C65.3184 14.5919 65.5984 14.7133 65.8556 14.7474C66.6935 14.8709 67.1353 14.9411 67.1809 14.9582C67.6911 15.1158 67.9463 15.448 67.9463 15.9548C67.9463 16.7641 67.5978 17.5627 66.9009 18.3507C66.287 19.0023 65.5735 19.4985 64.7605 19.8392C63.4829 20.3546 62.0414 20.7869 60.4361 21.1362C58.7644 21.5025 57.2835 21.6856 55.9934 21.6856C52.5173 21.6856 49.7816 21.2916 47.7864 20.5037C47.3342 20.295 47.0522 20.1651 46.9402 20.114C46.1852 19.5901 45.5837 19.1535 45.1357 18.8043C44.2148 17.995 43.7544 17.4818 43.7544 17.2646Z" fill="#4E9968"/>
<path d="M68.9418 6.30771C69.0621 5.61346 69.1471 5.17902 69.1969 5.00439C69.3089 5.10662 69.3857 5.28976 69.4271 5.55383C69.4811 5.67309 69.5205 5.86476 69.5454 6.12883C69.9685 9.31046 70.1842 10.9716 70.1925 11.1121C70.3128 11.9427 70.4061 12.4133 70.4725 12.524C70.6591 12.8818 71.0159 13.0607 71.5427 13.0607V14.3832C70.796 14.3832 70.3418 14.2341 70.18 13.936C70.0514 13.7528 69.9208 13.3354 69.788 12.6838C69.7507 12.3941 69.6905 11.9448 69.6076 11.3357C69.3089 8.75464 69.087 7.07863 68.9418 6.30771Z" fill="#4E9968"/>
<path d="M71.3 13.0607C71.636 13.0607 72.0135 13.0053 72.4325 12.8946C72.9344 12.7711 73.287 12.6305 73.4902 12.4729C73.2704 11.9831 73.1605 11.7084 73.1605 11.6488C73.1605 11.4571 73.2455 11.225 73.4156 10.9524C73.5939 10.6329 73.6997 10.4115 73.7329 10.288C73.6126 10.2113 73.5525 10.075 73.5525 9.87907C73.5525 9.67889 73.6126 9.45315 73.7329 9.20185C73.849 8.90371 73.988 8.75464 74.1498 8.75464C74.66 8.75464 75.2511 9.15713 75.9231 9.96212C76.4582 10.5882 76.7382 10.9183 76.7631 10.9524C77.1115 11.4337 77.2858 11.8447 77.2858 12.1854C77.2858 12.343 77.1281 12.6838 76.8129 13.2076C76.7216 13.3269 76.5557 13.3865 76.3151 13.3865C75.5021 13.3865 74.8923 13.2822 74.4858 13.0735C74.0004 13.3461 73.5193 13.6165 73.0422 13.8849C72.3619 14.2171 71.8185 14.3832 71.412 14.3832H71.3V13.0607ZM75.0956 12.2238C75.8505 12.424 76.3047 12.524 76.4582 12.524C76.5702 12.524 76.6262 12.4815 76.6262 12.3963C76.6262 12.2216 76.4333 11.9341 76.0475 11.5338C75.7696 11.2271 75.4938 10.9822 75.22 10.7991C75.2905 11.2676 75.249 11.7425 75.0956 12.2238ZM73.5525 11.6743C73.5525 11.7723 73.569 11.8255 73.6022 11.834C73.8594 11.9789 74.1187 12.0342 74.38 12.0002C74.6621 11.8085 74.8031 11.6083 74.8031 11.3996C74.8031 11.225 74.7596 11.0589 74.6724 10.9013C74.5812 10.7522 74.463 10.6777 74.3178 10.6777C74.1892 10.6777 74.0295 10.8097 73.8387 11.0738C73.6479 11.3336 73.5525 11.5338 73.5525 11.6743Z" fill="#4E9968"/>
<path d="M61.0085 17.0282C61.0085 16.9643 61.0562 16.9323 61.1516 16.9323C61.2719 16.9323 61.5312 17.0431 61.9294 17.2646C64.1279 18.406 66.0132 19.1727 67.5854 19.5645C69.3359 19.9819 71.3332 20.1906 73.5773 20.1906C77.0244 20.1906 79.7497 19.8627 81.7533 19.2068C83.761 18.5551 85.2833 17.3221 86.3204 15.5076C86.3204 14.9411 86.1461 14.3129 85.7977 13.6229C85.4493 12.9329 85.275 12.5496 85.275 12.4729C85.275 12.3068 85.385 11.9363 85.6048 11.3613C85.5882 11.1696 85.6256 11.0738 85.7168 11.0738C85.8869 11.0738 86.1461 11.5402 86.4946 12.4729C86.8513 13.3631 87.0297 13.9615 87.0297 14.2682C87.1749 15.4523 86.6771 16.7066 85.5364 18.0312C84.3998 19.3601 82.5788 20.3418 80.0733 20.9765C77.8831 21.4152 75.7634 21.6345 73.7142 21.6345C72.084 21.6345 70.5388 21.5515 69.0787 21.3853C67.1166 21.1128 65.6461 20.7145 64.6672 20.1906C64.0906 19.8967 63.4538 19.4559 62.757 18.8681C62.4417 18.5743 62.1181 18.2953 61.7863 18.0312C61.2678 17.5542 61.0085 17.2198 61.0085 17.0282ZM83.0537 8.08381C83.0537 7.99862 83.145 7.81974 83.3275 7.54715C83.51 7.2703 83.6262 7.13187 83.6759 7.13187C83.7465 7.13187 83.9207 7.20641 84.1986 7.35548C84.4973 7.53011 84.6466 7.67279 84.6466 7.78353C84.6466 7.86446 84.5616 8.03483 84.3915 8.29464C84.238 8.59278 84.1053 8.74186 83.9933 8.74186C83.8937 8.74186 83.7112 8.65667 83.4457 8.4863C83.1844 8.31594 83.0537 8.18177 83.0537 8.08381Z" fill="#4E9968"/>
<path d="M87.9879 6.40355C88.0916 5.71355 88.2575 5.27273 88.4857 5.08106C88.523 5.12365 88.5541 5.15347 88.579 5.1705C88.6869 5.76254 88.8155 6.72086 88.9648 8.04548C89.1141 9.36583 89.2386 10.5542 89.3381 11.6104C89.4418 12.6667 89.4937 13.2247 89.4937 13.2843C89.4937 13.4078 89.4626 13.6038 89.4004 13.8721C89.3423 14.1362 89.2199 14.315 89.0332 14.4087C88.9005 13.3269 88.7678 12.2515 88.635 11.1824C88.5064 10.1133 88.3654 9.0613 88.2119 8.02631C88.0626 6.98706 87.9879 6.44614 87.9879 6.40355Z" fill="#4E9968"/>
<path d="M89.1141 17.0537C90.2507 16.9813 90.9206 16.9196 91.1239 16.8684C91.7254 16.6768 92.3123 16.2956 92.8848 15.7248C93.4614 15.1541 93.8513 14.5536 94.0546 13.9232C93.8596 13.5739 93.6729 13.2311 93.4946 12.8946C93.2042 12.3324 93.059 11.964 93.059 11.7893L93.1026 11.6488C93.1191 11.6147 93.1731 11.4741 93.2643 11.2271C93.3348 11.0099 93.4033 10.9013 93.4697 10.9013C93.6646 10.9013 93.8948 11.193 94.1603 11.7765C94.43 12.2834 94.5648 12.6646 94.5648 12.9201C94.5648 14.6196 94.0628 15.9889 93.059 17.0282C92.5861 17.4967 92.0987 17.7309 91.5968 17.7309C91.2981 17.7309 90.5411 17.6223 89.3257 17.4051C89.2925 17.3795 89.222 17.3008 89.1141 17.1687V17.0537Z" fill="#4E9968"/>
<path d="M94.5337 16.9451C94.5668 16.9196 94.6291 16.9068 94.7203 16.9068H95.3488C96.2323 16.9068 96.8317 16.8642 97.147 16.779C97.5618 16.6384 98.0699 16.3062 98.6714 15.7823C99.3019 15.2499 99.6898 14.7836 99.835 14.3832C99.1298 14.3832 98.661 14.3342 98.4287 14.2362C98.0056 14.0914 97.7941 13.7209 97.7941 13.1246C97.7941 12.7498 97.931 12.3281 98.2047 11.8596C98.4993 11.3357 98.7959 11.0738 99.0945 11.0738C99.3144 11.0738 99.5653 11.3485 99.8474 11.8979C100.109 12.3239 100.283 12.7114 100.37 13.0607H100.7V14.3832H100.239C100.181 14.9752 99.8557 15.6375 99.2625 16.3701C98.6569 17.0601 98.0741 17.5095 97.5141 17.7182C97.0122 17.633 96.4376 17.5286 95.7905 17.4051C94.9526 17.2134 94.5337 17.0601 94.5337 16.9451ZM98.4599 12.8115C98.6548 12.9776 98.8747 13.0607 99.1194 13.0607C99.1609 13.0607 99.2127 13.0522 99.275 13.0351C99.275 12.9031 99.2439 12.7732 99.1816 12.6454C99.0904 12.4708 98.9887 12.3835 98.8767 12.3835C98.6735 12.3835 98.5345 12.5262 98.4599 12.8115Z" fill="#4E9968"/>
<path d="M100.482 13.0607C100.694 13.0692 101.003 12.9819 101.409 12.7988C101.816 12.6156 102.058 12.524 102.137 12.524C102.291 12.524 102.556 12.6135 102.934 12.7924C103.311 12.9713 103.614 13.0607 103.842 13.0607V14.3832C103.581 14.3832 103.265 14.2852 102.896 14.0893C102.527 13.8934 102.274 13.7954 102.137 13.7954C102.075 13.7954 101.861 13.8934 101.496 14.0893C101.131 14.2852 100.831 14.3832 100.594 14.3832H100.482V13.0607ZM101.975 9.39991C102.17 8.81639 102.349 8.49482 102.51 8.43519C102.656 8.51186 102.813 8.60769 102.983 8.72269C103.162 8.87176 103.284 9.00593 103.35 9.12519C103.222 9.79814 103.039 10.1346 102.803 10.1346C102.716 10.1346 102.558 10.043 102.33 9.8599C102.152 9.66824 102.033 9.51491 101.975 9.39991ZM100.482 9.98768C100.482 9.7875 100.636 9.46167 100.943 9.01019C101.411 9.34241 101.712 9.57666 101.845 9.71296V9.75768C101.845 9.91101 101.803 10.0984 101.72 10.3199C101.625 10.5542 101.532 10.6713 101.44 10.6713C101.337 10.6713 101.15 10.5818 100.88 10.403C100.615 10.2241 100.482 10.0856 100.482 9.98768Z" fill="#4E9968"/>
<path d="M103.562 13.0607C104.151 13.0607 104.713 12.9904 105.248 12.8499C106.045 12.6582 106.507 12.3835 106.636 12.0257C106.764 11.6679 106.883 11.4465 106.99 11.3613C107.028 11.3868 107.046 11.4443 107.046 11.5338C107.046 11.8106 106.97 12.1812 106.816 12.6454C106.932 12.688 107.034 12.7093 107.121 12.7093C107.988 12.7093 108.592 12.5773 108.932 12.3132C109.143 12.1386 109.305 11.8511 109.417 11.4507C109.525 11.0674 109.693 10.8289 109.921 10.7352L109.952 10.7863C109.969 10.8118 109.977 10.8417 109.977 10.8757C109.977 11.0078 109.921 11.3272 109.809 11.834C109.929 12.0257 110.052 12.1428 110.176 12.1854C110.214 12.194 110.396 12.2365 110.724 12.3132L111.047 12.1854C111.047 12.096 111.029 12.0002 110.991 11.8979C110.958 11.7915 110.942 11.7169 110.942 11.6743C110.942 11.6232 110.998 11.423 111.11 11.0738C111.255 10.6734 111.327 10.4605 111.327 10.4349C111.419 10.4349 111.512 10.5818 111.607 10.8757C111.69 11.11 111.732 11.3016 111.732 11.4507C111.732 11.9661 111.643 12.4325 111.464 12.8499C111.228 13.3993 110.888 13.674 110.444 13.674C110.224 13.674 109.851 13.5101 109.324 13.1821C109.195 13.5015 108.894 13.7486 108.422 13.9232C108.057 14.0467 107.669 14.1085 107.258 14.1085C106.852 14.1085 106.474 14.0467 106.126 13.9232C105.321 14.2299 104.57 14.3832 103.873 14.3832H103.562V13.0607Z" fill="#4E9968"/>
<path d="M111.526 17.0537C112.663 16.9813 113.333 16.9196 113.536 16.8684C114.138 16.6768 114.725 16.2956 115.297 15.7248C115.874 15.1541 116.264 14.5536 116.467 13.9232C116.272 13.5739 116.085 13.2311 115.907 12.8946C115.616 12.3324 115.471 11.964 115.471 11.7893L115.515 11.6488C115.531 11.6147 115.585 11.4741 115.677 11.2271C115.747 11.0099 115.816 10.9013 115.882 10.9013C116.077 10.9013 116.307 11.193 116.573 11.7765C116.842 12.2834 116.977 12.6646 116.977 12.9201C116.977 14.6196 116.475 15.9889 115.471 17.0282C114.998 17.4967 114.511 17.7309 114.009 17.7309C113.71 17.7309 112.953 17.6223 111.738 17.4051C111.705 17.3795 111.634 17.3008 111.526 17.1687V17.0537Z" fill="#4E9968"/>
<path d="M23.9316 49.3654H21.8561C19.1989 49.3654 16.8797 48.5419 14.8986 46.8949C13.0432 45.3587 11.7225 43.3 10.9363 40.7186C10.5904 39.5784 9.8278 39.0082 8.64856 39.0082C7.95673 39.0082 7.36711 39.2458 6.87969 39.7209C6.40799 40.1802 6.17214 40.7503 6.17214 41.4312C6.17214 42.1122 6.40799 42.6982 6.87969 43.1891C7.36711 43.6642 7.95673 43.9018 8.64856 43.9018H12.4457V49.3654H8.90799C6.70673 49.3654 4.80421 48.6131 3.20044 47.1087C1.61239 45.6042 0.818359 43.7117 0.818359 41.4312C0.818359 39.2616 1.58094 37.4087 3.1061 35.8726C4.63126 34.3364 6.47874 33.5684 8.64856 33.5684C10.3309 33.5684 11.8718 34.091 13.2712 35.1362C14.6706 36.1656 15.6297 37.4958 16.1486 39.127C17.1234 42.3102 19.0259 43.9018 21.8561 43.9018H23.9316V49.3654Z" fill="#4E9968"/>
<path d="M34.2146 29.1737H31.5259C30.7869 29.1737 30.1502 28.9124 29.6156 28.3898C29.081 27.8514 28.8137 27.21 28.8137 26.4657C28.8137 25.7213 29.081 25.08 29.6156 24.5415C30.1502 24.0031 30.7869 23.7338 31.5259 23.7338C32.2649 23.7338 32.8939 24.0031 33.4127 24.5415C33.9473 25.08 34.2146 25.7213 34.2146 26.4657V29.1737ZM43.5071 49.3654H41.408C39.2225 49.3654 37.2099 48.6923 35.3703 47.3462V49.3654H21.8561V43.9018H29.9693V33.7347H35.3703V37.1316C35.3703 39.0795 35.9285 40.6948 37.0448 41.9776C38.1612 43.2604 39.6156 43.9018 41.408 43.9018H43.5071V49.3654Z" fill="#4E9968"/>
<path d="M62.8939 49.3654H60.7949C58.6093 49.3654 56.5967 48.6923 54.7571 47.3462V49.3654H41.2429V43.9018H49.3562V33.7347H54.7571V37.1316C54.7571 39.0795 55.3153 40.6948 56.4316 41.9776C57.548 43.2604 59.0024 43.9018 60.7949 43.9018H62.8939V49.3654ZM58.4599 59.0336H55.7241C54.9851 59.0336 54.3483 58.7644 53.8137 58.226C53.2948 57.6875 53.0354 57.0461 53.0354 56.3018C53.0354 55.5417 53.2948 54.9003 53.8137 54.3777C54.3483 53.8551 54.9851 53.5938 55.7241 53.5938C56.4788 53.5938 57.1235 53.8551 57.6581 54.3777C58.1926 54.9003 58.4599 55.5417 58.4599 56.3018V59.0336ZM52.3279 59.0336H49.6156C48.8609 59.0336 48.2162 58.7644 47.6816 58.226C47.1628 57.6875 46.9033 57.0461 46.9033 56.3018C46.9033 55.5417 47.1628 54.9003 47.6816 54.3777C48.2162 53.8551 48.8609 53.5938 49.6156 53.5938C50.3546 53.5938 50.9914 53.8551 51.526 54.3777C52.0606 54.9003 52.3279 55.5417 52.3279 56.3018V59.0336Z" fill="#4E9968"/>
<path d="M87.4222 49.3654H60.6298V43.9018H81.7147C81.2587 42.5081 80.4411 41.3679 79.2619 40.481C78.0983 39.5942 76.7618 39.1508 75.2524 39.1508L67.21 39.1745V33.7347H75.2524C78.6015 33.7347 81.4631 34.9303 83.8373 37.3216C86.2273 39.6971 87.4222 42.5794 87.4222 45.9684V49.3654ZM73.6015 30.9316H70.9128C70.1738 30.9316 69.537 30.6703 69.0024 30.1477C68.4678 29.6092 68.2005 28.9678 68.2005 28.2235C68.2005 27.4792 68.4678 26.8378 69.0024 26.2994C69.537 25.7609 70.1738 25.4917 70.9128 25.4917C71.6518 25.4917 72.2807 25.7609 72.7996 26.2994C73.3342 26.8378 73.6015 27.4792 73.6015 28.2235V30.9316Z" fill="#4E9968"/>
<path d="M104.508 49.3654H102.409C100.24 49.3654 98.227 48.6923 96.3716 47.3462V48.6527C96.3716 52.0734 95.1452 54.9636 92.6924 57.3233C90.2553 59.6988 87.205 60.8865 83.5414 60.8865V55.4466C85.727 55.4466 87.5116 54.7894 88.8952 53.475C90.2946 52.1605 90.9943 50.5531 90.9943 48.6527V33.7347H96.3716V37.1316C96.3716 39.0795 96.9298 40.6948 98.0462 41.9776C99.1782 43.2604 100.633 43.9018 102.409 43.9018H104.508V49.3654Z" fill="#4E9968"/>
<path d="M115.924 49.3654H102.409V43.9018H110.523V33.7347H115.924V49.3654ZM116.159 28.7936H113.424C112.685 28.7936 112.048 28.5244 111.513 27.986C110.994 27.4475 110.735 26.8061 110.735 26.0618C110.735 25.3017 110.994 24.6603 111.513 24.1377C112.048 23.6151 112.685 23.3538 113.424 23.3538C114.178 23.3538 114.823 23.6151 115.358 24.1377C115.892 24.6603 116.159 25.3017 116.159 26.0618V28.7936ZM110.027 28.7936H107.315C106.56 28.7936 105.916 28.5244 105.381 27.986C104.862 27.4475 104.603 26.8061 104.603 26.0618C104.603 25.3017 104.862 24.6603 105.381 24.1377C105.916 23.6151 106.56 23.3538 107.315 23.3538C108.054 23.3538 108.691 23.6151 109.225 24.1377C109.76 24.6603 110.027 25.3017 110.027 26.0618V28.7936Z" fill="#4E9968"/>
</svg>
